<?xml version="1.0" encoding="utf-8"?>
<!-- Generator: Adobe Illustrator 28.0.0, SVG Export Plug-In . SVG Version: 6.00 Build 0)  -->
<svg version="1.1" id="Layer_1" xmlns="http://www.w3.org/2000/svg" xmlns:xlink="http://www.w3.org/1999/xlink" x="0px" y="0px"
	 viewBox="0 0 100 100" style="enable-background:new 0 0 100 100;" xml:space="preserve">
<style type="text/css">
	.st0{fill:#652B80;}
	.st1{fill:#F4785B;}
</style>
<rect x="0" y="0" transform="matrix(5.514314e-07 1 -1 5.514314e-07 99.9999 -8.697430e-05)" class="st0" width="100" height="100"/>
<g>
	<polygon class="st1" points="43.76,34.96 43.76,32.28 36.65,32.28 36.65,49.66 39.82,49.66 39.82,42.43 42.73,42.43 42.73,39.6 
		39.82,39.6 39.82,34.96 	"/>
	<path class="st1" d="M53.59,40.97c0-6.86-1.83-9.03-4.64-9.03c-2.81,0-4.64,2.17-4.64,9.03c0,6.86,1.83,9.03,4.64,9.03
		C51.76,50,53.59,47.83,53.59,40.97z M47.78,42.8v-3.66c0-3.76,0.44-4.52,1.17-4.52c0.73,0,1.17,0.76,1.17,4.52v3.66
		c0,3.76-0.44,4.52-1.17,4.52C48.22,47.31,47.78,46.56,47.78,42.8z"/>
	<path class="st1" d="M58.35,42.19h0.76l1.49,7.47h3.2l-1.88-8.2c1.42-0.83,1.86-2.78,1.86-4.25c0-3.66-2-4.93-5.03-4.93h-3.56
		v17.38h3.17V42.19z M58.35,34.82h0.49c1.07,0,1.76,0.54,1.76,2.42c0,1.25-0.44,2.42-1.61,2.42h-0.63V34.82z"/>
	<path class="st1" d="M40.79,65.47h2.56l0.46,3.86h3.05l-2.15-17.38h-4.59l-2.44,17.38h2.66L40.79,65.47z M42.11,54.63h0.05
		l0.93,8.3h-1.98L42.11,54.63z"/>
	<polygon class="st1" points="55.27,66.64 51.22,66.64 51.22,51.94 48.04,51.94 48.04,69.32 55.27,69.32 	"/>
	<path class="st1" d="M50,19.6c-16.76,0-30.4,13.64-30.4,30.4c0,16.76,13.64,30.4,30.4,30.4c5.88,0,11.58-1.68,16.5-4.86l-1.46-2.25
		c-4.48,2.9-9.68,4.43-15.04,4.43c-15.28,0-27.72-12.43-27.72-27.72c0-15.28,12.43-27.72,27.72-27.72c7.61,0,14.57,2.67,19.62,7.51
		c5.3,5.09,8.1,12.07,8.1,20.21c0,8.27-5.73,16.64-16.68,16.64v0h-1.23v-14.7h-3.17v17.38h4.4v0c5.73,0,10.66-2.04,14.25-5.9
		c3.3-3.55,5.11-8.32,5.11-13.42C80.4,32.38,67.62,19.6,50,19.6z"/>
</g>
</svg>
