<?xml version="1.0" encoding="UTF-8"?>
<svg id="Capa_1" data-name="Capa 1" xmlns="http://www.w3.org/2000/svg" viewBox="0 0 1010.3 1027.74">
  <defs>
    <style>
      .cls-1 {
        fill: #652B80;
        stroke-width: 0px;
      }
    </style>
  </defs>
  <path class="cls-1" d="m821.78,1.95c0,3.01-3.01,6.18-5.85,6.18s-2.84,1.87-.08,2.28c2.6.41,2.93,2.44.81,4.47-1.06.98-2.52,2.76-3.25,3.9-1.38,2.03-1.3,2.19,1.06,4.63,1.46,1.54,2.44,3.41,2.44,4.79,0,1.14,1.14,4.06,2.44,6.5,1.79,3.09,2.11,4.31,1.3,4.31-.65,0-2.36,1.38-3.82,3.01-1.46,1.71-3.09,3.01-3.66,2.84-.57-.08-1.79.89-2.76,2.28-.98,1.3-2.11,2.44-2.52,2.44s-2.36-1.46-4.23-3.17c-3.17-2.93-3.98-3.25-8.37-3.49-5.28-.24-5.04.16-4.31-7.15.08-1.14-.08-2.6-.41-3.25-.41-.89.98-2.52,4.79-5.69,2.93-2.36,5.28-4.63,5.28-4.96,0-1.71-5.28-5.44-10.08-7.15-3.01-1.06-5.77-2.6-6.26-3.41-1.63-3.01-7.88-1.38-14.14,3.82-3.49,2.76-3.9,2.93-7.88,2.44-8.45-.98-8.53,3.01-.08,5.28,6.42,1.79,8.29,2.84,8.86,5.2.24,1.06.98,2.36,1.63,2.93.65.49,1.14,1.46,1.14,2.11s.65,2.19,1.54,3.33c.81,1.22,1.95,4.71,2.44,7.72.49,3.01,1.38,6.42,1.87,7.56.89,1.87,1.3,2.03,4.06,1.63,4.23-.65,9.59,2.68,9.59,6.01,0,1.46.65,2.68,2.03,3.58,1.79,1.22,2.03,1.87,2.03,6.26,0,2.68.41,5.61.81,6.5,1.06,1.95.57,1.95-6.42.24-5.04-1.3-5.28-1.3-6.5.24-1.06,1.22-1.71,1.38-3.41.73-1.14-.41-3.09-.49-4.31-.16-2.03.49-2.11.73-2.11,6.66,0,6.66-.49,8.04-4.63,12.84-1.87,2.28-2.68,4.06-2.68,5.93,0,1.54-.89,4.55-2.03,6.74-3.74,7.31-2.36,10.89,5.93,15.52,6.83,3.82,9.91,6.34,9.43,7.56-.24.57.49,1.87,1.63,2.68,2.68,2.19,1.87,2.84-2.93,2.19-3.66-.49-3.9-.41-4.71,1.71-.81,2.03-1.06,2.19-3.9,1.63-6.58-1.3-13.65-1.79-15.36-.98-1.38.57-3.17.24-7.56-1.38-6.66-2.44-9.1-2.6-10.65-.81-.81,1.06-.73,1.71.49,3.82.89,1.46,1.14,2.6.65,2.76s-1.54.81-2.36,1.46c-2.19,1.63-1.06,3.17,6.66,8.69,6.66,4.88,9.34,5.61,12.19,3.49,2.6-1.95,5.04-1.46,6.83,1.38,2.11,3.49,2.11,6.83,0,7.96-.89.49-1.63,1.38-1.63,1.95,0,.65-.81,1.3-1.79,1.63-3.25.81-14.3.57-14.95-.41-.33-.65,0-.73,1.22-.33,3.33,1.06,1.71-1.3-2.03-2.84-5.36-2.36-9.51-2.84-10.73-1.38-.89.98-1.54.98-5.44-.08-4.88-1.38-6.01-3.01-4.31-5.93.81-1.38.81-1.87.08-2.11-.57-.24-1.06-.89-1.06-1.54,0-.57-.89-1.3-2.03-1.63-1.14-.24-1.87-.81-1.63-1.14.81-1.3-.65-3.33-4.63-6.42-3.74-3.01-3.9-3.25-2.36-4.14,1.95-.98,2.19-3.9.57-6.09-.98-1.38-.98-1.71.08-2.44,1.06-.81.73-1.54-2.52-4.79-3.66-3.82-6.83-5.2-16.09-7.31-1.63-.33-2.03-.89-1.71-2.03.57-2.11-4.88-4.96-9.34-4.96-3.41,0-6.83-2.44-7.88-5.53-.24-.98-.89-1.79-1.3-1.79s-.73-.41-.73-.81c0-1.71,3.17-.81,3.41.98.41,2.93,5.61,5.12,12.76,5.28,3.33,0,6.91.57,7.96,1.14,1.79.98,2.19.89,3.49-.89l1.54-2.03,4.55,1.63c4.47,1.46,4.71,1.46,11.62,0,4.14-.89,10.65-1.54,15.6-1.63,7.56-.08,9.02-.33,12.76-2.28,5.36-2.76,11.7-9.1,14.06-13.98,4.71-9.83,3.17-31.94-2.11-29.9-.73.24-1.46-.41-2.03-2.03-.49-1.38-1.54-2.76-2.36-3.01s-1.79-1.63-2.03-2.93c-.65-2.93-2.19-3.74-5.04-2.44-1.79.81-2.36.73-3.9-.73-.98-.89-2.36-1.63-3.17-1.63-.73,0-2.6-.89-4.06-2.03-1.46-1.14-3.09-2.03-3.58-2.03-1.3,0-1.22,2.19.08,2.68.49.16.81.57.57.81s-3.17-.49-6.5-1.54-6.99-1.87-8.04-1.63c-2.11.33-2.36.24-8.78-3.01-4.88-2.6-22.92-7.07-28.2-7.07-1.95,0-5.28.73-7.31,1.63-2.93,1.22-4.23,1.38-5.85.73-2.76-.98-5.77.81-6.99,4.23-.41,1.3-1.14,2.36-1.46,2.36-1.06,0-1.79-2.76-.89-3.09.49-.16.89-.98.89-1.87,0-2.19-3.01-2.68-7.23-1.14-4.23,1.46-3.9,1.46-4.39.08-.33-.73,0-.98,1.06-.73,2.03.57,4.39-3.09,3.66-5.53-.49-1.46-.98-1.63-3.58-1.22-2.19.33-4.06,0-6.58-1.22-3.41-1.71-3.58-1.71-4.71-.24-.65.98-.89,2.6-.65,4.55l.49,2.93-5.93.33c-3.17.16-6.26,0-6.74-.33-1.3-.89-1.95.08-1.95,2.76,0,3.25-2.76,2.84-3.09-.41-.33-2.52-3.33-4.96-5.28-4.14-.73.24-1.95.08-2.76-.41-1.14-.65-.49-.81,3.01-.89,5.28,0,8.13-1.63,8.13-4.55,0-1.38.73-2.44,2.44-3.41,1.3-.73,2.44-1.63,2.44-1.95,0-1.46-6.99-5.61-8.78-5.28-1.38.24-1.63.08-1.06-.49.49-.49.89-1.14.89-1.46,0-.73-6.18-3.17-8.13-3.17s-2.19,1.46-.49,2.11c2.11.81,2.19,2.76.16,2.76-1.38,0-2.44-.89-3.66-2.84-2.68-4.55-6.58-3.17-6.58,2.36,0,1.46-.33,1.95-1.14,1.63-.98-.41-.98-.81,0-3.25.65-1.54.98-3.17.65-3.66-.98-1.54-4.39-2.44-6.18-1.46-1.14.65-1.87.65-2.52,0-1.63-1.63-2.36-.98-1.79,1.54.49,2.11.33,2.44-1.14,2.44-3.41,0-2.76,2.76,1.06,4.39.57.24.33.73-.49,1.3-1.71,1.06-2.03,6.42-.49,7.96.73.73.57,1.06-.41,1.46-1.87.65-3.25-.41-2.76-2.28.24-.89,0-1.71-.73-2.03-.81-.33-.89-.73-.41-1.38.89-1.06-.49-7.8-1.54-7.8-1.79,0-6.58,14.63-6.99,21.37-.33,5.04-.73,6.26-2.11,6.26-.49,0-.65-1.06-.33-2.68,1.14-6.34,1.14-7.88-.08-8.53-1.06-.65-.81-1.46,1.3-5.69,2.84-5.61,3.01-6.66,1.3-6.66s-1.54-1.46.33-2.03c2.28-.73,2.68-2.68.89-4.47s-6.42-2.19-6.58-.65c-.24,2.03.24,3.49,1.46,4.88s1.06,1.46-3.33,1.46c-5.04,0-6.18.98-4.55,4.06.81,1.63.81,1.71-.65,1.3-2.84-.98-2.68.81.24,2.44,1.54.81,2.84,1.71,2.84,2.03,0,.73-4.79,1.79-7.07,1.63-1.87-.16-7.56,4.88-7.56,6.83,0,1.14,3.09,4.47,4.14,4.47s1.3,4.06.33,4.88c-.73.65-1.14.41-1.46-.81-.24-1.14-1.14-1.63-2.76-1.71-3.17-.16-6.01-.57-8.45-1.14-3.17-.81-7.23,1.54-7.23,4.06,0,1.14.65,2.6,1.46,3.33,1.14.98,1.38,1.95,1.06,4.23-.57,3.49-2.84,4.47-3.66,1.63-.49-1.87-.57-1.87-1.79.49-1.14,2.03-1.46,2.19-2.11,1.06-1.06-2.03-3.49-1.71-4.55.65-.57,1.3-1.63,2.03-2.76,2.03h-1.71l1.71-1.87c.98-1.06,1.79-2.28,1.79-2.76s.49-1.06,1.06-1.3c.49-.16.65-.65.33-1.06s-.89-.33-1.22.08c-.33.49-2.28.81-4.39.81-2.52,0-4.31.57-5.44,1.54-2.28,2.03-2.19,2.68.65,4.14l2.36,1.22-1.3,3.41c-2.19,5.61-6.74,8.37-7.72,4.63-.57-2.28-3.33-1.71-3.66.73-.24,1.63-.65,1.79-2.68,1.38-1.46-.33-2.36-.24-2.36.33,0,.49.73.89,1.63.89s1.63.33,1.63.81c0,.41-.81.81-1.79.81-2.36,0-4.71,1.54-3.33,2.19.73.24.81.81.24,1.79-.41.81-.57,1.71-.24,1.95.24.33,0,1.06-.49,1.71-1.22,1.46-.65,2.6,1.46,3.17,1.22.33,2.03-.33,3.25-2.36,1.46-2.44,2.03-2.76,4.55-2.6,2.93.16,2.93,1.06,0,1.63-1.3.24-1.63.89-1.63,3.66,0,2.44-.57,3.9-1.95,5.44-1.95,2.03-1.95,2.11-.49,3.74.81.89,1.06,1.63.65,1.63-1.95,0-5.2-2.36-6.99-4.96-2.44-3.66-4.14-3.58-4.47.08-.49,4.96-1.79,4.79-1.79-.24,0-3.98-.24-4.63-1.46-4.63-1.63,0-4.23,2.36-4.23,3.82,0,.49-1.3.89-2.93.81-2.28-.08-3.41.41-4.88,2.19-1.95,2.19-2.68,6.18-1.22,6.18.41,0,1.06-.73,1.3-1.63s1.06-1.63,1.79-1.63c.98,0,1.06.24.33,1.14s-.41,1.3,1.54,2.11c2.76,1.14,3.01,2.28,1.14,5.77-.65,1.38-1.06,2.68-.81,2.93.49.57,6.18-5.36,6.18-6.42,0-1.38,2.6-.57,3.01.98.65,2.36,1.87,1.95,2.44-.81.57-2.93,1.06-3.01,2.93-.41,1.38,1.95,1.38,2.03-.24,2.03-.98,0-2.03.81-2.6,2.03-.49,1.14-1.22,2.03-1.54,2.03s-.73.98-.89,2.19c-.24,2.11-.49,2.28-3.74,2.03-3.33-.33-3.49-.16-3.25,1.63.24,1.63.73,1.87,4.14,2.11,2.11.16,3.82.57,3.82.89,0,.81-5.61,2.52-8.29,2.52-1.14,0-2.6.65-3.33,1.46-1.71,1.87-1.79,5.77-.24,6.34.98.41.98.73,0,2.6-.65,1.22-1.14,2.6-1.14,3.09s-.81,1.87-1.71,3.09c-1.22,1.54-1.46,2.52-.89,3.09.49.49.65,1.3.49,1.87-.24.49.16,1.46.89,2.03.98.81,1.06,1.3.33,2.11-1.38,1.71-2.93,1.38-3.58-.73-.33-1.06-.65-1.38-.98-.81-.16.57-1.22,1.06-2.36,1.06-1.38,0-1.79.33-1.46,1.22.33.73,0,1.22-.81,1.22-2.11,0-1.54,1.54,1.14,3.09,1.3.73,2.44,1.63,2.44,1.95s-1.63.81-3.66,1.14c-4.39.65-5.77,1.79-6.91,5.85-1.06,3.98-1.06,4.63.49,5.93,1.14.98,1.06,1.14-.65,1.79-1.79.65-1.87.73-.33,1.87,1.54,1.06,1.54,1.14-.49,1.14-1.22,0-2.36.33-2.6.73-.73,1.14,1.79,2.76,3.33,2.19.73-.33,1.63-.08,2.03.49,1.06,1.71.73,2.03-1.38,1.63-1.71-.33-2.19.08-3.25,2.6-.73,1.63-1.06,3.82-.73,4.96.33,1.46.16,2.03-.65,2.03-2.76,0-5.36,10.65-2.84,11.62.57.24,2.6.16,4.55-.24,3.25-.57,3.33-.57,2.03.89-.73.89-1.87,1.54-2.52,1.54s-2.03.89-3.09,1.95c-1.14,1.14-3.33,2.11-5.61,2.44-2.03.33-3.74.89-3.74,1.38,0,.41-.49.73-1.14.73s-1.46.41-1.79.98c-.41.65.16.73,2.19.41l2.76-.57-2.6,2.11c-2.76,2.19-3.58,3.9-1.46,3.09.89-.41,1.06-.16.73.81-.24.73-.24,1.95.08,2.76,1.79,4.06.73,4.55-1.95.98q-1.79-2.44-4.23-1.06c-1.3.73-2.6,2.03-2.84,2.84s-.81,1.46-1.3,1.46-.49.49.16,1.22c.81.98.73,1.3-.24,1.71-.73.24-1.54,1.14-1.79,2.03-.33.81-.89,1.54-1.38,1.54-1.54,0-3.82,3.66-3.9,6.09,0,1.87-.65,2.84-2.84,4.31-2.76,1.79-3.82,4.55-1.95,5.2,1.3.41-.08,3.01-3.33,6.26-2.36,2.28-2.52,2.36-2.28.65.16-1.38-.24-1.87-1.87-2.03-2.93-.33-6.42,3.09-6.42,6.34,0,2.76.49,3.01,3.09,1.14,1.63-1.14,1.87-1.14,2.28.08.81,2.11-.65,2.93-3.74,2.03-3.33-.98-6.74-.41-8.21,1.3-.57.73-2.11,1.79-3.41,2.44-2.19,1.22-2.44,1.14-3.9-.41-1.63-1.71-3.58-2.11-5.93-1.22-2.03.73-1.54,3.49.73,4.55,1.14.49,2.03,1.14,2.03,1.46s-1.54,1.63-3.33,2.93c-2.44,1.63-4.14,2.19-6.09,2.03-3.58-.24-3.58,1.22.08,2.93l2.76,1.3-2.11,1.14c-1.14.57-3.58.98-5.44.89q-3.33-.24-3.09,2.36c.08,1.46-.16,2.68-.65,2.68-.41,0-.81.57-.81,1.22,0,1.54-.73,1.54-2.36.08-.73-.57-2.68-1.3-4.31-1.63-2.44-.49-3.09-.33-3.09.65,0,.73.98,1.87,2.11,2.68l2.11,1.38-1.95,1.38c-.98.81-1.87,1.71-1.95,2.11,0,.33-.73,2.03-1.54,3.66-1.38,2.84-1.38,3.17-.16,4.55,1.79,1.95,1.79,2.19-.81,4.55-1.71,1.54-1.95,2.28-1.22,3.17.73.81.73,1.3,0,2.03s-.57,1.3.57,2.6c1.22,1.3,1.3,1.79.41,2.84-.57.65-1.38,2.93-1.71,5.04-.65,3.25-.49,4.06.81,5.44.81.98,1.71,2.44,1.87,3.33s.81,1.54,1.38,1.38c.57-.08,1.95.49,3.01,1.38l2.11,1.63-1.95.41c-.98.24-2.76.57-3.9.65-1.54.16-1.95.65-1.79,1.87.57,3.01,2.19,5.69,3.58,5.69,1.87,0,2.84,1.14,3.49,4.23.33,1.54.16,2.76-.41,3.09-.65.41-.49,1.06.49,2.11,1.14,1.22,1.22,1.79.41,2.6-.49.49-1.54.98-2.36.98-.73,0-1.79.89-2.36,2.03-.57,1.22-1.63,1.95-2.44,1.79-1.3-.16-1.46.49-1.63,5.12-.08,3.98.16,5.28.98,5.28.57,0,1.3-.65,1.54-1.46.33-.89,1.22-1.46,2.28-1.46,1.3.08,1.95-.73,2.84-3.41,1.22-3.41,2.6-4.23,5.04-2.68.89.57.81.98-.65,1.79-.89.65-1.71,1.95-1.71,3.01,0,1.54.33,1.71,2.11,1.3,2.03-.49,1.95-.41-.81,2.36-1.63,1.63-2.93,3.66-2.93,4.47,0,.89-.49,2.03-1.14,2.52-.98.81-1.22.65-1.46-.81-.41-2.93-2.28-2.93-2.28,0,0,1.38-.41,3.25-.89,4.06-1.79,2.76,1.95,10.65,4.96,10.65.89,0,1.63.33,1.63.65,0,1.3,5.12,5.85,7.15,6.42,1.46.33,2.36.08,3.09-.98.65-.81,1.38-1.22,1.71-.89s.08.89-.57,1.3c-4.96,2.84-5.2,5.12-.65,6.09,1.46.33,3.09.81,3.49,1.06,1.22.81,9.34.73,9.83,0,.24-.33,1.3-.65,2.44-.65,1.46,0,2.19-.65,2.84-2.28.81-2.03.98-2.11,1.87-.81,1.46,2.03,2.76,1.79,3.9-.57.49-1.06,1.22-1.79,1.54-1.54.33.16,2.44-1.79,4.63-4.47,2.93-3.41,4.31-4.55,4.88-3.98,1.38,1.38,2.93-3.25,1.71-4.71-.73-.89-.49-1.14,1.3-1.14,1.95,0,2.11-.24,1.71-1.95-.65-2.6.41-3.17,6.01-3.33,5.28-.16,8.13-2.03,8.13-5.36,0-1.22.57-2.36,1.22-2.68,1.54-.57,1.54-2.84,0-4.88-.89-1.14-.98-1.87-.33-2.68,1.54-1.79,2.36-1.22,2.36,1.71,0,1.54.41,3.09.81,3.33.49.24.81,1.22.81,2.11,0,2.19,3.66,3.82,5.69,2.52,1.3-.81,1.79-.65,2.84.81,1.71,2.52,1.54,3.17-.81,2.6-2.44-.57-2.52-.08-.81,7.39.98,3.98,1.06,6.09.49,8.37-.73,2.52-.65,3.17.89,4.79,2.19,2.36,5.04,2.36,6.66.08,1.06-1.46,1.46-1.63,2.28-.81s.65,2.11-.81,6.26c-2.36,6.66-2.36,10.97-.16,11.54,1.3.33,1.63,1.14,1.63,4.06,0,4.06.57,5.36,4.55,10.56,1.54,2.03,2.76,4.47,2.76,5.53,0,1.22.57,2.11,1.63,2.44.89.33,2.28,1.87,3.09,3.49.73,1.63,1.79,3.01,2.19,3.01,1.54,0,2.84,1.3,2.84,2.93,0,1.14-.57,1.54-2.03,1.54-2.68,0-3.41,2.03-1.54,4.14q1.46,1.71-.73.65c-2.76-1.22-3.58-.49-2.52,2.36q.81,2.19-1.79,1.95c-2.19-.24-3.25.16-5.2,2.19-2.68,2.6-4.96,3.09-8.45,1.71-2.68-.98-2.76.24-.08,1.46,4.39,2.03,1.46,5.04-4.79,5.04-4.63,0-5.04,1.71-.89,4.14,3.09,1.87,3.66,4.14,1.54,6.5-1.14,1.3-1.14,1.46.49,1.95.98.33,1.54,1.06,1.46,1.87-.16.98.73,1.46,3.82,2.03,4.71.81,6.26,1.87,4.47,3.09-.89.65-.98.98-.24,1.3.81.24.73.65-.16,1.63-.65.65-1.06,1.54-.81,1.95.81,1.22-1.46.81-4.23-.81l-2.6-1.63-2.19,2.93c-1.38,1.79-1.87,3.09-1.3,3.33.49.16,2.19,1.38,3.9,2.68q3.49,2.76,5.85,1.06c1.06-.73,2.36-1.06,2.93-.89,1.22.49,6.18-4.14,6.18-5.69,0-.57-.81-1.22-1.79-1.54l-1.87-.57,1.87-.65c2.11-.81,2.28-2.11.57-4.55-1.38-1.95-1.14-2.28,2.68-3.09,3.9-.81,4.23-2.68.98-5.28l-2.68-2.19,2.36-1.54c1.3-.81,2.76-2.11,3.33-2.76,1.22-1.46,1.38-4.63.24-5.28-.98-.57-1.14-3.66-.16-3.66.33,0,1.79,1.87,3.25,4.23,2.44,3.58,2.6,4.31,1.79,6.01-.57.98-.81,2.44-.49,3.17.24.73,0,1.46-.73,1.71-2.28.89-1.22,1.63,3.49,2.52,4.06.81,4.96.73,7.8-.73,2.52-1.22,4.06-1.46,7.07-1.06,3.9.57,3.98.49,5.28-2.36,1.46-3.01,1.22-4.23-1.46-7.96-1.38-1.95,1.71-7.48,4.39-7.8,3.58-.49,4.06-.81,3.17-2.52-.81-1.38-.49-1.54,3.17-1.87,2.28-.08,4.23.08,4.39.57.08.41.98.16,1.95-.73,1.63-1.38,1.87-1.38,4.39-.16,2.6,1.3,2.76,1.3,4.06-.33,1.54-1.95,3.09-6.66,3.09-9.59,0-1.06.73-2.84,1.54-3.98.89-1.06,1.38-2.52,1.14-3.17s0-1.14.49-1.14c.57,0,.89,1.95.89,5.04,0,6.18.65,8.78,2.11,8.78,1.3,0,1.71-1.54,2.28-9.34.33-3.17,1.54-9.83,2.76-14.87,1.63-6.5,1.95-9.1,1.22-9.1-1.63,0-3.49,3.41-3.01,5.44.33,1.14-.41,3.82-2.11,7.31l-2.6,5.53-1.14-2.76c-1.46-3.41-1.46-4.14.08-4.14s1.54-1.06-.08-4.14c-1.3-2.6-.98-5.04,1.06-7.31,1.06-1.22.98-1.54-.49-2.52-1.54-1.06-1.54-1.38-.49-2.76,1.79-2.36,1.46-4.23-.98-5.53l-2.28-1.22,2.28-.08c2.93,0,3.58-1.87,1.87-5.44-1.22-2.6-1.22-2.93-.08-3.82,1.06-.73,1.14-1.38.41-3.25-.65-1.87-.57-2.76.41-4.23.73-1.14.89-2.03.41-2.36-1.38-.89-.89-2.03,1.22-3.01,1.14-.49,2.03-1.38,2.03-2.03,0-.57.57-1.06,1.22-1.06,1.79,0,3.98-3.82,4.55-8.04q.49-3.66.65-.73c.08,2.03.57,3.33,1.63,3.82,1.87,1.06,2.52.41,2.52-2.44,0-2.19,3.41-5.61,5.61-5.61.65,0,.49-.81-.33-2.44-1.22-2.36-1.22-2.44.73-2.44,2.28,0,3.17-.89,2.44-2.68-.65-1.71-2.76-2.44-4.06-1.3-.65.49-1.14.57-1.14.24,0-.41.73-1.22,1.63-1.79.89-.49,2.28-2.36,3.17-4.06,1.22-2.36,2.11-3.17,3.49-3.09,3.17.16,2.84-3.01-.81-6.58-1.71-1.71-3.33-3.66-3.58-4.31-.33-.98-.65-1.06-1.63-.16-1.06.81-1.38.81-1.79-.33-.33-.81.16-1.79,1.3-2.68,2.76-2.28,1.46-4.31-2.36-3.74-3.82.57-6.91-.98-7.56-3.66-.41-1.79-.98-2.03-4.88-2.28-5.04-.33-6.5-1.14-5.93-3.41.24-.89-.16-2.52-.89-3.66-.89-1.3-.98-2.03-.41-2.03.65,0,.65-.33.08-1.06-1.14-1.38-1.38-3.74-.65-7.39.49-2.6.24-3.58-1.46-6.26-1.14-1.71-2.11-3.49-2.11-3.98,0-1.06,2.19-1.06,2.84,0,.81,1.3,3.66.98,3.66-.49,0-.73-.73-2.36-1.71-3.66-1.22-1.79-1.54-3.09-1.14-4.63.33-1.22.65-3.25.73-4.47.16-1.3.65-2.6,1.22-2.93.73-.49.08-1.38-2.03-3.09-3.49-2.84-3.17-4.31.98-4.31,3.58,0,6.01-2.6,5.28-5.53-.41-1.54.16-2.6,3.17-5.61,2.28-2.28,3.25-3.9,2.68-4.06-2.6-.89.73-5.85,3.98-5.93,1.79,0,3.09-2.44,3.09-5.53,0-2.03.24-2.36,1.63-2.03,1.87.49,2.19-1.22.65-2.93-.89-.81-.65-.89,1.14-.49,1.87.49,2.36.24,2.93-1.3.41-1.06,1.87-2.28,3.49-2.76,1.87-.65,2.84-1.54,3.01-2.68.16-.98.73-1.79,1.38-1.79,1.3,0,1.71-1.14,3.25-8.29.73-3.66,2.03-6.83,3.66-9.02,1.3-1.79,2.44-3.74,2.44-4.31s-1.79-2.28-4.06-3.9c-4.96-3.58-5.2-5.44-1.22-10.16,3.01-3.74,3.01-4.88-.16-8.29-2.03-2.28-1.79-3.17,1.06-3.17s4.39-.89,4.39-2.44c0-1.71,2.03-3.58,3.25-2.84.41.24.81.08.81-.33,0-.49-.49-.89-1.14-.89-1.87,0-2.11-1.06-1.14-4.31l.89-2.93,2.03,1.54c3.25,2.6,6.66,1.63,6.66-1.71,0-1.22.65-1.38,4.47-1.14,3.9.16,4.71,0,6.01-1.71,2.19-2.76,3.9-2.44,5.36.98,1.06,2.52,1.46,2.84,3.25,2.44,1.95-.49,5.04.65,6.26,2.36.33.41.65,2.52.65,4.63,0,5.04.57,6.34,2.93,6.34,2.93,0,2.44,2.19-.73,3.58-1.54.57-3.9,2.28-5.36,3.66-2.19,2.19-2.68,3.25-2.84,6.91-.16,2.76-.73,4.88-1.54,5.77-.73.73-1.38,2.36-1.38,3.58,0,1.3-.73,2.93-1.71,3.82-1.3,1.14-1.63,2.19-1.3,4.23.41,2.36.16,2.84-2.68,4.71-2.28,1.46-3.33,2.93-3.82,5.04-.57,2.44-1.06,2.93-2.52,2.76-1.63-.24-1.79.08-1.79,3.01,0,2.6-.24,3.17-1.22,2.84-.65-.33-1.22-.16-1.22.33,0,.41.57,1.22,1.22,1.79,1.87,1.54,1.54,4.88-.33,4.88-.89,0-1.79.33-2.03.73-.24.33-1.3.49-2.44.33-1.3-.24-2.52.16-3.74,1.38-2.11,2.11-1.87,4.39.65,4.71,2.44.41,2.28,1.14-1.46,5.44-2.84,3.25-3.25,4.31-3.25,7.56.08,3.66.08,3.74,1.38,2.19q1.22-1.54.81.98c-.41,1.95-.08,3.01,1.46,4.71,1.63,1.71,2.03,3.01,2.03,6.42,0,3.66.24,4.47,1.54,4.79.98.24,1.87,1.54,2.44,3.41.49,1.71,1.87,4.14,3.01,5.44,2.11,2.19,2.19,2.28.49,2.28-2.36,0-2.93,1.38-1.54,3.49,1.46,2.36,2.44,6.26,1.46,6.26-.41,0-.57.73-.33,1.63.24.89,0,1.63-.49,1.63-1.46,0-1.06,4.47.65,6.66.98,1.14,1.46,2.68,1.22,3.66-.33,1.06.33,2.44,1.63,3.98,1.95,2.19,2.19,2.28,3.25.89.98-1.3,1.14-1.3,1.63-.08.33.89,1.06,1.14,2.76.73,1.54-.33,2.68-.08,3.33.73.73.81,1.87,1.06,3.9.73l2.84-.49-.57,2.68c-.65,2.84-.08,2.84,3.09.16,1.3-1.14,1.38-1.06,1.38.81s2.19,4.71,3.82,4.71c1.3,0,.73,3.01-.98,4.88-1.22,1.3-1.22,1.63-.24,1.63,1.38,0,5.53-3.82,5.53-5.04,0-.41.73-.57,1.63-.24,1.79.57,4.63-.73,6.5-3.01.65-.81,2.84-1.95,4.88-2.52,2.68-.81,3.58-1.46,3.41-2.44-.16-1.06.33-1.38,2.11-1.38,3.49,0,9.91-4.39,9.91-6.83v-1.95l3.25,1.71c2.44,1.38,3.41,1.54,4.14.81,1.3-1.3.24-4.88-1.71-5.53-.89-.24-1.63-.89-1.63-1.3,0-1.3,2.36-.81,3.98.81,1.22,1.22,1.79,1.38,2.44.65.41-.57,2.44-1.46,4.55-2.11,2.68-.81,3.98-1.71,4.55-3.01.81-2.19,1.06-2.28,3.25-1.14,1.22.65,2.19.57,3.98-.57,1.38-.73,2.44-1.87,2.44-2.44s.81-1.06,1.71-1.06c.98,0,3.01-1.3,4.47-2.93l2.76-2.84v2.93c0,4.06,1.3,6.34,3.25,5.69,1.14-.33,2.19.16,3.58,1.54,2.28,2.52,4.39,2.68,8.37.49l3.01-1.63,2.11,2.03c1.14,1.14,3.09,2.03,4.23,2.03,1.22,0,2.36.33,2.6.73.33.41-2.93.89-7.31,1.06-8.61.24-10.24,1.22-9.43,5.28.41,2.03.24,2.11-2.44,1.63-3.66-.57-5.04.33-4.55,3.01.49,2.36-.24,2.76-1.79.89-2.6-3.17-4.96.41-2.93,4.39,1.71,3.25,1.63,5.53-.16,6.5-1.79.98-23.32,1.46-25.92.57-.98-.33-1.95-.16-2.28.33-.41.65-.89.65-1.71-.08-.65-.49-1.22-.65-1.3-.24,0,.41-.16,1.06-.24,1.54-.16.41-.24,1.3-.33,1.79-.24,2.44-7.72,4.47-9.59,2.6-1.14-1.14-2.76-.16-2.52,1.54.16.89-.65,1.46-2.93,1.95-4.23.89-6.42,2.84-5.77,5.28.41,1.63.08,1.87-2.84,2.36-3.74.57-4.88,1.71-5.12,4.88-.16,1.79.24,2.36,1.87,2.76,2.11.49,2.28,1.38,1.22,5.77-.41,1.71,0,2.76,1.95,4.96,1.38,1.63,2.52,3.66,2.52,4.55,0,2.28,2.03,4.14,3.98,3.66.81-.24,1.79,0,2.03.49,1.06,1.63,2.84.89,4.14-1.63,2.68-5.04,3.33-1.95,2.68,11.46-.08,1.79.81,4.96,2.44,8.45,1.46,3.01,2.6,6.26,2.6,7.15,0,2.44-2.11,5.85-5.28,8.69-3.09,2.68-4.06,3.01-4.88,1.71-.24-.49-1.38-.81-2.44-.81-1.54,0-2.36-.81-3.82-3.82-1.46-3.09-2.76-4.39-6.34-6.34-3.01-1.71-4.55-3.09-4.88-4.47-.65-2.76-3.01-3.01-5.53-.57-1.22,1.14-3.33,2.6-4.79,3.33-4.79,2.36-5.93,4.79-5.93,12.35,0,6.09-.16,6.91-2.19,9.26-2.03,2.52-2.19,3.01-1.95,9.99.16,5.61.65,8.61,2.19,12.19,1.06,2.68,1.87,5.61,1.79,6.58,0,.89.57,4.14,1.3,7.07,1.22,4.79,1.22,5.77.24,8.78-.65,1.87-.89,3.58-.49,3.74,1.06.73,2.36-2.52,2.36-6.09,0-2.19.33-3.17.89-2.76.49.24.73,1.54.41,2.84-.33,1.71-.16,2.36.73,2.36.98,0,.98.41.24,2.03-.65,1.46-.65,2.6.16,4.39,1.54,3.82.65,4.96-3.98,4.96-2.19,0-4.31-.41-4.55-.81-.33-.57-1.06-.49-2.11.08-.89.41-3.17,1.06-5.04,1.38l-3.41.65.24,4.14c.16,2.28-.16,5.04-.65,6.09-1.46,2.68-4.96,6.34-7.48,7.64-2.52,1.3-8.21,1.46-10.4.33-1.3-.73-3.01-4.79-3.58-8.86-.57-3.58-8.69-3.09-16.17.98-7.64,4.23-11.3,6.01-13.73,6.99-1.3.49-3.41,2.68-5.04,5.2-2.19,3.41-3.41,4.55-5.44,4.96-4.14.81-18.77,6.91-22.02,9.18-1.71,1.14-3.58,1.87-4.23,1.63-1.87-.73-2.93.98-2.03,3.33.98,2.52.65,2.84-1.95,2.19-3.01-.81-4.06-2.44-4.31-6.34l-.16-3.41-3.25.24c-4.55.33-5.04-1.63-.89-3.41,3.33-1.54,3.98-2.93,1.95-4.55-.89-.73-1.14-1.79-.81-3.41.49-2.03.33-2.28-1.54-2.28-1.3,0-2.11-.49-2.11-1.22,0-.65-.33-1.22-.73-1.22-1.14,0-4.79,3.74-5.12,5.36-.33,1.63-3.17,1.95-7.31.81-1.95-.57-2.36-.33-3.82,2.6-1.87,3.66-4.79,5.85-7.8,5.85-3.41,0-5.28,1.46-6.91,5.36-1.79,4.14-2.6,4.39-3.98,1.46-.65-1.54-1.3-1.95-2.36-1.54-2.6,1.14-5.04,1.38-5.04.65,0-.41.98-1.63,2.11-2.76,2.76-2.52,4.47-6.01,3.9-7.56-.65-1.71-3.49-1.63-5.36.08-1.46,1.3-1.71,1.3-5.04-.49-1.95-1.06-3.9-1.71-4.47-1.38-.49.33-.89.08-.89-.65,0-1.54-1.06-1.63-3.49-.41q-1.79.98-.24-.81c1.3-1.46,1.46-2.28.81-4.71-.57-2.52-1.22-3.17-3.58-3.82-1.54-.41-3.09-1.14-3.41-1.63-.89-1.3,0-1.63,1.38-.49,1.06.81,1.22.73,1.22-.65,0-.89-.89-2.36-1.95-3.25l-2.03-1.54,1.79-1.71c1.46-1.54,1.54-1.95.65-3.66-.65-1.3-.81-3.01-.49-4.63l.57-2.6,1.71,1.63c.89.89,2.19,3.41,2.93,5.61,1.22,3.58,1.54,3.98,4.55,4.55,8.13,1.63,8.29,1.63,9.67-.41,1.14-1.79,1.14-2.52.08-7.48-1.14-5.61-2.68-8.45-3.41-6.42-.24.73-1.06.49-2.76-.73l-2.36-1.79-2.52,1.87c-1.38.98-3.01,1.63-3.66,1.38-1.46-.57-1.46-2.11-.08-2.11,2.28,0,3.98-3.17,4.79-9.1.81-6.01,1.38-7.56,2.03-5.69.65,1.71,2.76,3.49,3.58,2.93,1.95-1.22,5.61-7.23,5.61-9.26,0-3.01-1.54-4.14-5.04-3.58-3.17.57-3.74,0-4.31-3.49-.24-1.3-.65-3.25-.89-4.39-.33-1.38.16-3.33,1.22-5.44,2.76-5.36,3.66-10.56,2.11-12.84-1.54-2.44-1.54-3.49.16-5.36.98-1.06,1.06-1.79.49-2.36s-1.63-.08-3.41,1.63c-1.46,1.38-3.41,2.52-4.39,2.52-2.68,0-4.39,1.54-6.09,5.77-2.44,5.61-3.58,6.42-9.1,6.42-2.6,0-5.69.33-6.83.81-2.52.89-5.12,4.96-5.93,8.94-.24,1.54-.98,3.33-1.63,3.9-.57.57-1.06,2.28-1.14,3.66,0,1.46-.24,5.44-.41,8.94-.24,3.49,0,6.91.41,7.72.73,1.22.81,1.22.89-.33,0-2.84,1.06-2.93,2.19-.24,1.46,3.58,1.3,4.23-.89,3.82-1.71-.33-2.11,0-2.93,3.01-1.63,5.85-.98,6.74,5.77,8.04,1.87.41,2.19.98,2.6,4.71.33,2.52.16,5.36-.41,6.83-1.3,3.58-.24,7.72,2.93,11.78,3.25,4.06,3.01,5.61-.89,5.61-2.44,0-2.76.24-2.52,1.79.16,1.46.73,1.87,2.84,1.87,1.38,0,2.76.24,3.09.57.33.24,0,2.6-.73,5.12-.73,2.44-1.14,4.88-.89,5.28.73,1.14-1.54.98-2.76-.16-.81-.89-1.3-.65-2.6.89-1.22,1.46-1.54,3.17-1.54,7.88,0,5.36-.16,6.01-1.54,6.01-1.14,0-2.03-1.3-3.49-5.12l-1.95-5.04-5.69-.24c-6.66-.24-9.1,1.06-11.38,6.34-1.38,3.09-1.46,3.17-2.6,1.46-1.06-1.54-1.79-1.63-6.58-1.22-7.56.65-16.17,3.49-18.28,6.01-4.39,5.28-5.53,6.01-9.34,5.77-3.58-.16-3.74-.08-4.71,2.6-.49,1.54-1.22,4.96-1.46,7.48-.41,3.74-1.22,5.61-4.55,10.32-2.68,3.9-4.55,5.77-5.69,5.77-1.38,0-1.54.49-1.38,3.01.24,2.93.16,3.01-3.25,3.82-3.33.81-3.41.98-2.03,2.28,1.3,1.38,1.22,1.46-1.95,1.46-4.31,0-5.2,1.38-2.36,3.66l2.19,1.79-2.44-.41c-1.71-.24-4.55.73-10.4,3.74-6.01,3.09-9.26,4.14-13.25,4.63-6.66.65-11.13,1.79-11.86,3.01-.33.49-1.22,4.55-2.03,9.1-1.3,7.15-1.3,8.29-.33,9.43,1.3,1.46.89,2.44-.98,2.44-.57,0-2.44.89-4.14,1.95-1.63,1.06-5.2,2.36-7.88,2.93-12.76,2.44-15.85,4.23-15.85,9.18,0,4.31-5.85,7.07-8.94,4.23-.81-.73-4.23-2.11-7.64-3.25-5.04-1.46-6.18-1.63-5.85-.73.24.65.16,1.06-.24.73-1.3-.81-1.95-5.28-.89-6.5,1.95-2.28.33-3.66-4.31-3.66-2.52,0-4.96-.49-5.93-1.22-.81-.65-1.71-1.14-1.95-1.22-.24,0-.49,2.19-.57,4.88-.16,3.41.16,5.2,1.06,6.09,2.03,2.03,2.76,5.85,1.95,10.32-.49,2.19-.98,4.31-1.22,4.71s.49,1.79,1.63,3.09c2.52,3.01,2.52,3.58.08,2.6-1.06-.41-2.6-.49-3.49-.33-1.14.33-1.87-.16-2.52-1.71-1.22-2.6-2.19-2.11-2.93,1.3-.65,3.33-2.84,2.84-4.14-.89-1.14-3.33-1.38-3.41-5.77-1.06l-3.41,1.79-2.28-4.63c-1.3-2.52-2.84-4.63-3.41-4.63s-1.3-.49-1.63-.98c-.41-.65-2.03-.98-4.23-.81-3.01.16-3.66.49-4.06,2.11-.41,1.79-.57,1.79-1.54.57-.65-.73-1.71-1.3-2.44-1.22s-1.95-.08-2.76-.49c-.89-.33-2.28-.16-3.49.49-1.63.81-2.19.81-2.68.08-.41-.73-1.63-.65-5.04.33-5.61,1.71-6.58,2.44-6.26,5.53.24,2.28.49,2.52,2.93,2.52,1.95,0,2.52.33,2.19,1.14-.24.65.16,1.95.81,3.01q1.22,1.95-1.79,1.95c-5.28,0-6.91,2.52-2.28,3.41,1.22.16,1.71,1.06,2.03,3.49.41,3.09.49,3.25,3.25,3.09,1.54-.08,2.93-.49,3.09-.98.49-1.54,2.19-.98,3.01.89.49,1.06,1.54,1.95,2.44,2.11s2.6,1.3,3.82,2.44c2.03,1.87,2.44,1.95,4.23,1.06,2.6-1.46,3.82-.57,3.17,2.36-.41,2.03-.16,2.44,1.22,2.44,2.84,0,4.06.81,3.66,2.52-.41,1.38,0,1.54,4.14,1.54,2.52,0,4.55.33,4.55.65s-.89,1.95-2.03,3.41c-1.95,2.6-1.95,2.93-.65,3.82.73.57,1.63,1.06,1.95,1.06s.81.65,1.14,1.46c.24.89,1.38,1.95,2.6,2.52l2.11.98-1.63,1.79c-.89.98-1.87,2.19-2.19,2.76-.65,1.14,1.22,5.12,3.09,6.66.73.65,1.3,1.95,1.3,3.01s.41,2.84.98,3.98c.73,1.71,1.38,2.03,2.84,1.63,1.38-.33,1.87-.08,1.87.81,0,.73.81,1.63,1.87,2.03,3.01,1.3,4.71,3.01,4.14,4.31-.24.65,0,2.03.49,3.01.73,1.38.57,2.03-.73,3.74-1.71,2.19-1.63,2.76.65,5.53,1.22,1.46,1.22,1.54-.49,1.14-2.11-.57-3.25.57-1.71,1.54,2.11,1.3,6.34,6.83,6.34,8.21,0,.81-.89-.16-2.11-2.11-1.14-1.87-2.52-3.41-3.17-3.41-1.3,0-3.9,6.5-5.28,13.41-.57,2.68-1.38,5.61-1.87,6.5s-.98,2.93-1.06,4.47c-.24,4.63-5.77,24.95-7.8,28.68-2.28,4.06-5.2,5.36-12.6,5.36-4.23.08-5.36-.24-7.39-1.95-1.46-1.22-3.01-1.87-3.74-1.54-.89.33-1.54-.16-2.03-1.54-.65-1.63-1.22-1.95-3.09-1.54-1.22.16-2.84.89-3.58,1.46-1.06.98-1.63.81-3.9-.81-1.46-1.06-3.09-2.6-3.66-3.33-1.54-2.19-9.1-3.09-11.54-1.46-1.87,1.14-2.44,1.14-7.48,0-3.01-.73-9.1-3.17-13.57-5.44-4.47-2.28-8.94-4.06-9.91-4.06-1.06,0-1.87-.41-1.87-.81,0-.49-.73-1.54-1.63-2.44-1.54-1.54-1.87-1.54-3.9-.49-1.87.98-2.52.98-4.23.08-1.14-.57-3.01-.89-4.23-.65s-4.23-.24-6.74-1.06c-3.74-1.14-4.96-1.22-6.26-.41-2.03,1.22-2.76.73-5.04-3.82-2.6-5.12-4.71-6.99-7.39-6.34-1.14.33-2.03.89-2.03,1.3,0,.49-.33.81-.81.81-.41,0-.57-.57-.33-1.22,1.06-2.68-2.44-1.95-11.46,2.52-7.72,3.9-10.32,4.79-14.46,5.04-4.71.33-5.28.57-6.99,3.01-1.63,2.36-1.71,3.09-.98,5.93.98,3.49,2.03,4.23,6.26,4.23,2.36,0,2.76.33,2.76,1.79,0,1.95-3.17,5.53-4.79,5.53-1.06,0-1.14,1.87-.08,2.93.98.98-.33,6.83-1.71,7.72-.81.49-.65,1.14.41,2.84q1.46,2.19-1.06,4.14c-2.6,2.03-3.25,3.9-1.63,4.47.73.24.73.73,0,2.03-1.06,2.11-1.22,11.95-.16,13.9.89,1.63-.65,6.66-2.93,9.83-.89,1.14-2.36,4.14-3.41,6.58s-2.6,5.44-3.49,6.66c-.89,1.3-1.38,2.6-1.06,3.01.57,1.06-6.42,12.43-9.34,15.28-1.38,1.22-3.41,2.44-4.63,2.68-1.95.41-2.28.81-2.03,2.68.16,1.46-.98,4.47-3.17,8.45l-3.41,6.18,2.19,4.39c1.14,2.36,2.11,4.88,2.11,5.53,0,.89.89,1.22,3.09,1.22,1.71,0,3.49.41,4.06.98,1.63,1.63,1.14,5.77-1.06,8.94-2.11,3.09-2.52,5.12-1.38,5.85,1.3.73-1.54,10.48-4.88,16.98-1.79,3.58-2.93,6.66-2.6,7.07.41.33,2.6.33,4.79,0,3.82-.57,4.47-.41,11.95,3.41l7.88,3.98,3.82-1.63c5.12-2.28,12.35-2.28,15.2-.08,1.14.89,2.44,1.63,2.84,1.63.49,0,2.52,1.87,4.63,4.23,3.74,4.23,3.82,4.23,3.25,8.61-.49,3.98-.41,4.39,1.14,4.79,1.79.49,2.36,1.87.81,1.87-.57,0-.73.81-.33,2.19.98,4.06,3.58,9.18,4.55,9.18.57,0,2.52,1.63,4.47,3.66,1.87,2.03,3.74,3.66,4.14,3.66.49,0,1.46-.73,2.28-1.63.81-.89,2.11-1.63,2.93-1.63.73,0,2.19-1.3,3.17-2.84,2.11-3.41,4.06-3.98,10.81-3.33,4.88.57,5.12.49,7.39-1.87,2.03-2.11,3.09-2.52,6.09-2.52,5.2,0,13.9,1.63,16.74,3.09,1.54.81,4.06,1.22,6.66,1.06,2.93-.08,5.2.33,7.48,1.46,4.06,2.11,4.63,2.11,7.15.08,2.76-2.19,3.74-2.03,7.07.89,2.84,2.44,2.93,2.44,5.28,1.06,1.3-.73,3.25-2.84,4.23-4.55,4.39-7.23,6.91-10.08,11.3-12.27,4.63-2.36,4.71-2.36,14.38-.89,2.84.41,3.58.24,4.06-.89.33-.89,0-1.79-.81-2.44-2.19-1.54-1.71-4.39.81-5.36,2.76-1.06,3.49-2.11,3.49-5.04,0-1.38.41-2.19,1.22-2.19.73,0,1.63-.89,2.03-2.03.41-1.14,1.3-2.03,2.03-2.03.65,0,1.22-.57,1.22-1.22,0-1.46,2.52-2.84,5.28-2.84,1.14,0,2.28-.57,2.52-1.22s1.71-1.54,3.17-2.03c4.88-1.63,4.96-2.68.49-6.58-3.49-3.01-4.31-4.31-5.36-8.45-.65-2.6-1.22-5.53-1.22-6.34,0-3.33,3.17-7.88,11.46-16.41,4.71-4.96,9.26-10.16,10.16-11.62,1.14-1.95,2.52-2.93,5.2-3.74,3.98-1.14,5.2-3.25,2.44-4.14-2.44-.73-1.71-2.03,2.6-4.71,3.01-1.87,5.36-2.52,13.33-3.41,5.28-.65,10.32-1.22,11.13-1.22s2.93-1.38,4.71-3.17c1.79-1.71,4.71-3.58,6.58-4.06,5.69-1.71,13.65-5.93,15.36-8.13,1.63-2.03,1.63-4.88.16-8.69-.24-.65.08-1.14.81-1.14,1.38,0,3.82-2.11,3.82-3.25,0-.41-1.14-2.03-2.52-3.66-2.19-2.44-2.52-3.33-2.11-5.77.33-1.63.08-3.58-.49-4.39-.73-1.22-.65-1.87.49-3.09.73-.81,1.38-2.44,1.38-3.58,0-2.11,1.63-3.17,6.5-4.23,1.14-.24,3.98-2.11,6.34-4.14,2.44-2.03,4.55-3.66,4.71-3.66.24,0,1.38.65,2.52,1.38,1.22.81,3.82,1.87,5.85,2.28,2.93.65,3.74,1.22,3.74,2.44,0,1.46.49,1.63,4.39,1.38,2.44-.16,4.79.16,5.44.73.65.49,2.03.73,3.17.57,1.3-.33,2.03-.08,2.03.65,0,1.87,2.52,3.58,5.36,3.58,2.28,0,2.93.41,3.58,2.03.73,1.95,4.06,3.01,4.06,1.22,0-1.3,2.28-.89,3.09.57.73,1.22.98,1.22,3.09-.16,1.3-.89,3.82-1.79,5.61-2.03,2.52-.33,3.17-.73,3.01-1.87-.33-1.79,3.01-5.44,4.47-4.88.57.24,1.46-.57,1.95-1.71.65-1.38,1.63-2.11,2.93-2.11s1.87-.49,1.87-1.63c0-.89.49-1.71,1.06-1.71,2.11-.24,2.68-.33,4.23-1.22.89-.49,3.41-1.22,5.69-1.54,5.61-.81,8.21-2.36,10.32-6.09,1.06-1.71,2.52-3.33,3.25-3.49.81-.24,1.79-1.3,2.19-2.36.89-2.44,4.55-4.96,7.07-4.96,1.06,0,3.25.81,4.88,1.79,1.63.98,3.41,1.63,3.98,1.38.57-.16,3.17,1.46,5.77,3.66s5.36,3.98,6.01,3.9c5.2-.49,6.91,1.3,8.69,9.18.65,2.68,2.11,6.74,3.25,9.02,1.71,3.41,1.95,4.88,1.63,8.45-.49,4.55-.41,4.63,3.41,4.31,1.54-.08,1.79.16,1.38,1.22-.65,1.71.81,3.66,2.84,3.66.81,0,1.71.73,1.95,1.63s1.06,1.63,1.71,1.63c1.71,0,3.25,3.74,2.11,5.12-1.3,1.54-.41,2.19,2.68,2.19,5.04,0,7.64,1.54,9.83,5.77,1.22,2.52,2.52,3.98,3.41,3.98,2.28,0,4.96,2.28,6.18,5.28.65,1.54,2.19,3.25,3.49,3.9,1.22.73,3.41,2.52,4.88,4.14,1.54,1.79,3.33,2.93,4.47,2.93,2.28,0,3.17.57,4.96,3.49,1.63,2.44,3.09,2.76,4.63.98,1.3-1.54,3.98-1.54,6.01,0,2.03,1.54,2.93,1.54,2.93,0,0-3.58,6.34,2.52,8.69,8.29q1.46,3.66,4.88,3.17c4.31-.57,5.85.89,3.98,3.82-2.36,3.49.89,4.14,5.2.98,3.01-2.28,3.98-1.87,6.58,2.36,1.06,1.79,1.22,2.76.57,4.23-1.22,2.6-.41,4.06,2.52,4.63,1.38.33,3.17,1.3,3.9,2.19,1.3,1.46,2.03,1.63,5.69,1.14,3.82-.49,4.23-.33,5.53,1.54.73,1.14,1.63,3.9,1.95,6.26.49,2.84,1.3,4.71,2.36,5.61,2.11,1.63,4.23,6.5,4.23,9.75,0,1.63.89,3.49,2.6,5.44,3.01,3.41,2.52,5.28-1.63,6.09-4.63.98-6.09,3.09-3.82,5.61.98,1.06.98,1.87.24,4.23-.89,3.01-3.25,4.39-5.77,3.41-.73-.24-2.19.16-3.33.89-1.71,1.14-2.36,1.22-3.33.41s-1.3-.81-1.54.08c-.16.65-.57,1.79-.81,2.6-.57,1.79-2.76,1.79-4.71,0-1.38-1.22-1.71-1.22-4.14,0-1.38.73-3.66,2.19-4.88,3.17-1.95,1.54-3.17,1.87-7.23,1.71-3.01-.16-5.77.24-7.15.98-3.17,1.63-4.55,1.54-6.5-.41-.89-.89-2.28-1.63-3.17-1.63-.81,0-1.71-.73-1.95-1.63-.57-2.28-4.23-2.11-6.26.16-.89,1.06-2.19,2.6-3.01,3.41-1.38,1.63-1.46,1.63-3.98-2.52-.89-1.38-1.22-1.22-4.14,1.79-4.71,4.63-5.2,8.69-1.71,12.92,2.36,2.93,2.76,3.09,6.01,2.6,3.01-.41,3.98-.08,8.94,3.17,3.09,2.03,6.26,3.66,7.15,3.66.81,0,2.52.89,3.9,2.03,1.87,1.54,3.33,2.03,6.34,2.03,5.53,0,7.72,1.06,10.16,4.79,2.76,4.47,5.85,5.93,10.89,5.28,2.52-.33,4.14-.16,4.47.41,1.38,2.19,2.84.81,2.76-2.52,0-2.68.41-3.82,2.11-5.2,2.6-2.28,2.6-2.52.33-5.04-1.3-1.38-1.54-2.11-.81-2.36,1.63-.57,1.14-1.63-1.06-2.19-1.3-.33-2.03-1.06-2.03-2.03,0-2.36,3.17-12.11,5.85-17.96l2.36-5.28,1.63,3.17c1.87,3.9,2.76,4.55,6.5,4.55,3.17,0,5.04-1.54,6.01-4.88,1.3-4.47,3.09-7.23,5.28-8.13,2.93-1.22,3.58-3.01,2.84-8.21-.73-5.12.57-6.74,6.66-8.53,2.36-.65,4.88-1.79,5.53-2.44,1.63-1.63,1.54-5.53-.08-6.91-.81-.65-1.14-1.87-.89-3.41.24-1.95-.08-2.52-2.68-3.82-1.63-.81-3.41-2.11-3.98-2.76-.65-.73-2.36-1.3-4.14-1.3-2.36,0-3.17-.41-4.06-1.95-.89-1.79-.81-2.28.73-4.23,1.22-1.54,1.63-2.93,1.3-4.23-.57-2.19,4.63-12.76,6.66-13.49.73-.33,2.6.33,4.23,1.3,2.03,1.3,4.71,1.95,9.02,2.28,6.58.41,6.5.41,9.02,7.15.65,1.79,2.03,3.25,4.14,4.31,4.14,2.11,5.53,1.54,5.53-2.19,0-1.71.57-3.66,1.3-4.47,2.11-2.36-.57-6.83-5.93-9.83-2.52-1.46-4.79-3.33-5.2-4.47-.73-2.11-4.06-3.82-9.1-4.71-1.63-.33-4.23-1.46-5.69-2.52-5.04-3.66-8.37-5.04-17.96-7.56-14.46-3.74-18.12-6.83-12.76-10.65,2.68-1.87,3.66-4.06,2.93-6.42-.73-2.36-2.44-2.6-7.48-1.3-10.24,2.68-21.45.98-23.4-3.41-.41-1.06-1.71-2.19-2.84-2.6-3.66-1.22-11.21-8.86-13.25-13.33-1.14-2.36-3.17-7.88-4.63-12.35-2.84-8.45-5.69-12.6-8.78-12.6-1.54,0-15.52-9.59-19.83-13.57-1.54-1.46-2.6-3.74-3.49-7.64-1.63-7.39-1.63-7.88,1.22-9.51,3.25-1.87,3.82-3.9,1.71-6.58-.98-1.14-2.11-2.93-2.52-3.98-.49-1.06-1.3-2.44-1.95-3.09-1.63-1.63-.73-4.39,1.46-4.39.98,0,3.74-1.3,6.18-2.84,2.44-1.54,5.28-2.84,6.26-2.84,1.14,0,1.95-.73,2.6-2.52.73-2.11,1.14-2.36,2.68-1.87,1.06.24,2.11.98,2.44,1.46.41.57.98.33,1.79-.73.98-1.3,1.46-1.46,2.68-.73.81.49,1.63,1.54,1.71,2.28.33,1.71-2.03,4.55-3.74,4.55-.81,0-.98.41-.57,1.38.33.81.89,3.25,1.3,5.44.41,2.44,1.46,4.79,2.68,6.09,1.06,1.14,2.6,3.58,3.33,5.36l1.38,3.25,1.3-1.95c.73-1.06,2.11-2.68,3.09-3.66.98-.98,2.11-3.9,2.76-6.74,1.22-6.09,2.84-6.66,6.99-2.52,1.46,1.46,3.41,3.33,4.31,4.06,1.38,1.22,1.71,2.44,1.71,6.34,0,4.71.16,5.12,3.58,8.78,2.68,2.84,3.41,4.23,2.93,5.04-1.46,2.28-.81,4.55,1.79,6.99,4.63,4.14,9.51,7.72,12.51,8.94,2.36.98,2.84,1.54,2.44,3.01-.81,3.49.49,4.14,5.2,2.6,4.14-1.38,4.31-1.38,7.31.33,1.71.89,4.14,1.71,5.44,1.71,1.63,0,3.17.89,5.04,2.76,1.38,1.46,4.39,3.58,6.66,4.55,3.98,1.87,5.69,3.82,2.11,2.52-1.06-.41-3.33-.89-5.12-1.06-2.36-.16-3.17.08-3.17.98s.98,1.3,3.58,1.38c2.36.08,4.14.73,5.36,1.87,1.3,1.22,3.49,1.95,6.66,2.36,3.58.41,5.77,1.3,9.18,3.66,2.44,1.63,5.36,3.25,6.5,3.41,1.22.24,2.68,1.46,3.49,2.93,1.22,2.11,1.71,2.36,3.82,1.87,1.54-.33,2.44-.24,2.44.41,0,.49,1.22,1.63,2.76,2.52s3.01,2.44,3.25,3.49c.57,2.19,3.58,3.74,7.39,3.74,2.68,0,2.84.16,2.84,2.84,0,1.87-.41,2.84-1.14,2.84-1.38,0-2.11,1.79-2.11,5.28,0,2.03.41,2.84,1.63,3.25,1.79.57,1.79.41-.08,14.22-.65,4.71-.49,5.53.98,7.48,1.3,1.95,1.38,2.28.33,2.28-1.79,0-2.44,2.19-1.14,3.82.65.73,3.82,2.52,7.07,3.98,3.98,1.87,6.18,3.41,6.83,4.79.49,1.14,1.38,2.03,2.03,2.03.73,0,1.06,1.06,1.06,3.17,0,2.52.49,3.58,2.11,4.88,1.22.98,2.68,1.71,3.25,1.71.65,0,.89.49.65,1.22-.33.81,1.14,2.19,4.88,4.55,5.77,3.58,8.94,7.72,7.64,9.99-1.06,1.87-.24,2.76,2.11,2.36,1.46-.33,2.11,0,2.52,1.3.24.98.98,1.71,1.63,1.71,1.54,0,4.55,4.06,4.14,5.61-.24.73.08,2.03.73,2.84,1.22,1.54,1.3,1.54,3.49-.65,2.11-1.95,2.44-2.03,3.41-.89,1.06,1.3,2.84,1.3,5.93,0,1.22-.49,1.3-.33.65,1.3-.57,1.63-1.22,1.95-4.23,1.95-3.25,0-3.58.24-3.82,2.03-.49,4.31-1.06,5.61-2.68,6.09-2.44.81-1.79,3.98.98,4.31,1.71.16,2.28.81,2.68,2.68.41,2.03.81,2.36,2.03,1.95,1.14-.33,2.6.41,4.88,2.52,3.49,3.09,4.23,5.61,2.03,7.23-1.71,1.22-.81,5.77,1.38,6.91.98.57,1.54,1.71,1.54,3.09,0,2.6,1.3,4.23,3.33,4.23s4.14-2.36,3.66-3.98c-1.63-5.53-1.63-5.77.98-5.77,2.03,0,2.76.57,4.55,3.66,1.22,2.03,2.52,3.66,2.93,3.66.49,0,.81,1.3.81,2.84,0,1.79.65,3.49,1.63,4.47,2.76,2.76,3.41,2.03,3.09-3.74-.16-4.55,0-5.53,1.38-6.58,1.54-1.06,1.87-.89,4.88,2.52,1.79,2.11,3.74,3.74,4.31,3.74.49,0,.98.33.98.81,0,.98,3.82,1.06,4.39.16.24-.41-.65-1.79-2.03-3.09-1.95-1.87-2.28-2.76-1.95-4.55.41-1.63-.08-3.41-1.71-6.34-1.22-2.19-2.52-4.06-2.93-4.06-.33,0-.65-.41-.65-.89s-1.46-2.52-3.25-4.55c-5.04-5.77-4.06-7.56,2.28-4.31,2.6,1.38,4.06,1.54,7.8,1.14,2.52-.33,4.79-.89,5.04-1.3.81-1.3-1.22-2.84-4.96-3.82-2.68-.65-3.66-1.3-3.74-2.52-.08-.89-.16-2.11-.24-2.68-.08-.49-1.14-1.38-2.52-1.87l-2.44-.89,5.12-1.87c2.84-1.06,5.04-2.36,5.04-2.93,0-1.95,1.63-1.22,4.31,1.71,1.38,1.54,3.17,2.84,3.98,2.84s1.87.73,2.44,1.63,1.63,1.63,2.44,1.63c1.95,0,2.6-3.01,1.14-5.28-.73-1.06-1.3-2.68-1.3-3.49s-.41-1.87-.98-2.44c-.65-.65-.65-1.22.16-2.19,1.79-2.11-1.54-4.71-6.66-5.28-2.28-.24-4.31-.81-4.47-1.3-.16-.57.49-.81,1.71-.57,1.14.24,3.25,0,4.63-.49,2.11-.73,3.01-.65,4.55.41,1.14.73,1.79,1.71,1.54,2.44-.24.65.08,1.14.73,1.14s1.22.57,1.22,1.22c0,1.54,4.63,4.47,7.07,4.47,1.06,0,2.44-.89,3.17-2.03,1.87-2.84.41-4.47-4.14-4.47-4.06,0-5.04-.89-5.77-5.61-.33-1.95-1.38-4.39-2.44-5.53-1.71-1.87-2.19-1.95-4.47-1.14-1.95.65-2.84.65-4.14-.24-.81-.65-2.28-.98-3.09-.73-.98.24-2.76-.73-5.2-3.01l-3.74-3.41-2.6,1.54c-2.6,1.54-2.76,1.54-5.28,0-2.6-1.46-3.25-3.25-2.03-5.2.49-.81,1.63-.65,4.88.57,7.39,2.84,5.93-1.22-2.44-6.66-2.36-1.46-4.63-3.74-5.53-5.61-.89-1.71-2.93-4.06-4.47-5.28-4.06-3.09-4.71-4.55-3.66-8.53.73-2.76.73-3.58-.41-4.79-1.14-1.3-1.06-1.54,1.79-3.74,2.84-2.11,2.93-2.19,1.63-.33s-1.3,2.03.41,3.82c1.06,1.14,2.76,1.87,4.23,1.95,5.2.16,6.5.98,7.39,4.79l.89,3.66,4.63.24c2.76.16,4.63-.08,4.63-.57s-2.11-1.87-4.63-3.09c-5.44-2.6-6.18-4.55-1.95-4.96,2.44-.24,3.25.16,6.26,3.41,3.9,4.31,4.96,4.55,5.69,1.71.65-2.6-1.3-4.88-4.63-5.61-2.52-.49-3.17-2.44-1.06-3.25,3.09-1.22,6.09-.41,9.18,2.36,3.33,3.01,4.96,3.58,4.96,1.71s-3.25-5.2-5.69-5.77c-1.38-.33-3.01-1.14-3.74-1.79-1.06-1.14-1.3-1.14-2.36.24-1.06,1.46-1.22,1.38-2.36-1.46-.73-1.63-1.95-3.33-2.68-3.74-1.14-.65-1.22-1.06-.41-2.03.73-.81,2.03-1.06,4.47-.81,3.74.41,5.04-.49,7.15-5.04,1.38-2.84,3.41-3.49,5.28-1.63,1.79,1.71,4.06.89,8.04-2.93l3.33-3.17,3.98,1.3c3.41,1.22,4.63,1.22,9.02.41,5.53-1.14,7.56-.73,5.93,1.22-1.38,1.63-.33,3.33,2.36,3.98,1.79.33,4.06-.16,8.37-2.03,3.17-1.38,6.09-2.28,6.34-1.95.24.24-.73,1.46-2.28,2.68-6.58,5.04-9.26,7.96-8.53,9.1.41.65.81,3.49.89,6.42.49,13.25.73,16.25,1.46,16.98.57.57,3.33-.33,7.88-2.44,3.98-1.71,7.48-3.17,7.96-3.17.98,0-1.14,4.47-3.09,6.74-1.14,1.3-1.14,1.54-.16,2.19.65.49,1.79.81,2.52.81,1.79,0,4.39,2.93,3.17,3.66-.49.33-.81,1.14-.65,1.87.24,1.06.98,1.3,3.41,1.14,3.58-.33,3.41.65-.89,4.31-1.46,1.22-2.68,2.68-2.68,3.25s1.3,2.19,2.93,3.58c2.36,2.11,3.17,2.44,4.06,1.63.65-.49,1.38-.73,1.63-.49s-.65,1.06-1.95,1.71c-2.11,1.14-2.76,1.14-4.63.16-1.22-.65-2.93-2.28-3.74-3.74-2.28-3.74-4.39-3.01-4.39,1.54-.08,2.76.33,3.66,1.63,4.14,1.46.65,1.38.73-.81,1.22-1.87.41-2.44.98-2.52,2.52-.16,1.54.24,1.95,1.87,1.95,1.14,0,3.09.65,4.47,1.38,2.36,1.46,2.44,1.46,4.31-.89l1.79-2.28.89,2.52c.98,2.68,1.71,3.09,3.17,1.63,1.46-1.46,7.31.57,7.88,2.76.81,3.17.57,3.74-2.52,5.36-3.17,1.63-2.93,2.19,1.38,2.68,1.79.24,2.03.57,1.79,3.17-.33,3.82,1.06,4.71,3.49,2.36l1.95-1.79,2.44,1.87c1.3,1.06,2.44,2.6,2.44,3.33.08,1.22-.65,1.46-4.39,1.46-4.88,0-5.77,1.22-3.17,4.14,1.06,1.14,1.71,1.3,3.33.65,1.46-.49,2.44-.49,3.25.16.81.73,1.38.73,2.03.08.57-.57,1.63-.98,2.44-.98s4.06-1.3,7.23-2.93c3.82-1.87,6.09-2.6,6.58-2.11,1.14,1.14.08,2.6-1.87,2.6-.89,0-2.36.41-3.25.81-1.22.73-1.38,1.22-.73,2.44.81,1.46.57,1.63-1.87,1.63-1.87,0-4.31,1.06-7.39,3.01-4.71,3.17-5.93,4.88-2.68,3.98.98-.24,2.84-.49,4.06-.49,1.63,0,2.44-.49,2.76-1.63.33-1.14,1.14-1.63,2.6-1.63,1.22,0,3.01-.57,3.98-1.3,1.63-1.14,1.79-1.14,1.79.08,0,.73-.81,2.03-1.79,2.76-1.46,1.22-1.54,1.54-.41,1.95,1.54.57,8.45-6.66,9.18-9.67.73-2.76,2.68-2.44,3.33.49.33,1.79,1.06,2.6,2.6,2.93,1.14.24,2.76.65,3.58.89,1.06.24,1.38-.16,1.38-2.11,0-5.04,4.06-2.03,5.28,3.82.73,3.33,4.06,5.04,10.08,5.04,2.19,0,4.31.41,4.55.89.65.98,3.09-.49,8.61-5.12,3.9-3.25,5.44-3.74,7.07-2.11.81.81,1.22.81,1.71-.08.81-1.22.49-10.89-.33-15.2-.65-2.93-.33-3.09,7.39-4.71,3.98-.89,6.83-.81,15.28,0,10.65,1.14,13.65,2.19,17.23,6.09,2.19,2.36,4.96,3.66,9.51,4.31,3.25.49,3.9.41,4.39-.89.65-1.87,1.87-2.68,3.9-2.68.89,0,2.03-.65,2.6-1.54.49-.81,2.11-1.71,3.66-2.03,5.12-.98,8.69-3.17,9.67-5.93.73-2.28,1.06-2.52,2.36-1.71,2.52,1.63,4.06-.41,3.58-4.47-.41-3.01-.08-4.06,2.68-8.29,1.79-2.68,3.82-5.53,4.63-6.34,1.79-1.79,6.34-1.79,12.76,0l4.96,1.38,1.63-2.19c.98-1.3,2.36-2.19,3.58-2.19,1.87,0,2.28-.73,2.03-3.09-.16-1.3,3.41-9.1,4.14-9.1.41,0,.65-27.95.65-62.08,0-55.42-.16-62.24-1.3-63.38-1.79-1.79-2.36-1.63-4.71,1.3-1.95,2.52-2.19,2.6-4.55,1.71-1.87-.73-3.09-.73-4.47-.08-1.54.65-2.19.49-3.58-.89-2.84-2.84-6.99-2.28-10.32,1.22-3.49,3.82-5.93,3.41-8.86-1.63-2.93-4.96-5.85-5.36-10.89-1.54-3.17,2.44-4.14,2.76-6.83,2.44-4.23-.57-6.26-2.6-6.01-5.77.16-2.44.08-2.52-3.09-2.52-2.68.08-3.25.41-3.66,2.03-.73,3.25-4.14,4.88-17.15,8.04-13.98,3.41-14.79,3.74-18.2,7.39-1.3,1.46-4.14,3.49-6.26,4.55-2.84,1.46-5.53,4.06-9.83,9.51-7.23,9.02-10.32,12.35-11.95,12.92-.73.24-1.22,1.46-1.22,3.49,0,1.87-.49,3.25-1.22,3.66-.65.33-2.6,1.22-4.23,2.03-2.52,1.22-4.14,1.3-9.43.89-5.36-.49-6.58-.33-7.48.73-2.11,2.52-5.53,3.58-14.3,4.31-9.83.81-25.11,0-28.12-1.46-3.58-1.87-6.34-5.12-6.83-8.04-.81-5.04-1.14-5.61-3.98-7.39-1.54-.98-3.25-2.68-3.9-3.9-.89-1.95-1.46-2.19-4.63-2.11l-3.58.08,2.11-1.71c1.14-.98,2.28-2.68,2.6-3.82.24-1.3,1.22-2.36,2.19-2.6,1.54-.41,1.71-.81,1.14-3.58-1.54-8.29-1.71-11.46-.65-12.92.65-.89.98-2.19.73-3.01-.41-1.71,2.19-3.01,5.77-2.76l2.28.16-.16-6.09c-.08-3.33-.89-9.34-1.79-13.33l-1.63-7.23,2.03-3.9c1.06-2.19,1.95-4.47,1.95-5.12,0-3.01,3.25-6.58,7.07-7.8l3.9-1.22.24-4.79c.16-2.6,0-5.36-.33-6.09-.33-.73-.65-2.93-.65-4.96-.08-3.09-.33-3.66-1.71-3.66-.89,0-1.87-.41-2.19-.81-1.06-1.46-.65-2.84.81-2.84,2.84,0,4.79-2.19,4.39-4.79-.33-2.11-.08-2.52,1.3-2.52,2.19,0,2.84-.98,5.85-8.45,1.54-3.98,2.36-7.23,2.03-8.37-.24-1.06-.08-1.87.41-1.87,1.06,0,1.06-2.68-.08-3.82-1.3-1.3,3.49-4.88,7.39-5.53,1.79-.33,3.25-.98,3.25-1.46s1.06.08,2.28,1.3c2.19,2.11,5.69,3.09,4.63,1.38-.33-.49.73-.81,2.52-.81h3.01l-1.79,1.95c-2.68,2.84-1.54,4.06,3.33,3.41,3.01-.41,4.23-.24,5.2.73,1.71,1.71,4.55,1.54,7.15-.49,1.14-.89,3.41-2.03,5.04-2.44,1.54-.49,3.58-1.54,4.47-2.44,1.54-1.54,1.79-1.54,3.09-.41,2.03,1.87,3.09,1.63,4.47-.98l1.22-2.19.08,2.52c0,1.3.41,2.84.98,3.41.73.73.33,1.63-1.79,3.82-1.54,1.54-3.33,2.76-3.98,2.6-.73-.08-1.22.24-1.14.73s-1.14,2.11-2.6,3.58c-1.54,1.54-2.84,3.09-2.84,3.49s-1.06,1.79-2.44,3.01c-2.93,2.68-3.01,3.66-.73,4.96,1.38.73,2.36.57,4.88-.49,3.01-1.38,3.17-1.38,6.01.33,3.25,1.95,6.09,2.19,7.56.73.73-.73,1.54-.41,3.41,1.38,2.03,1.95,2.36,2.76,1.95,4.96-.24,1.46-.08,3.41.49,4.39.81,1.54.73,1.95-.73,3.01-2.03,1.38-1.54,2.68,1.06,2.68.98,0,2.52.57,3.41,1.22,4.39,3.33,9.67-.16,13.65-8.94,3.09-6.58,6.99-10.56,9.91-9.83,2.03.57,3.58-1.3,3.58-4.14,0-.81.73-1.95,1.71-2.52,1.06-.65,1.46-1.54,1.14-2.52-.81-2.6,1.54-3.74,5.28-2.52,2.84.98,3.41.89,4.71-.24.81-.81,2.03-1.38,2.68-1.38s2.03-.57,3.01-1.3c1.63-1.06,1.71-1.71,1.3-5.53-.33-2.84-.24-4.55.41-4.88.49-.33.89-1.3.89-2.19,0-1.22-.41-1.46-1.79-1.14-1.06.24-3.33.73-5.12,1.06-2.28.49-3.33,1.14-3.49,2.19-.49,2.68-1.63,3.25-3.25,1.79-1.71-1.54-2.6-1.06-2.6,1.46,0,1.95-2.36,4.47-4.23,4.47-2.11,0-8.53-4.79-13.57-10.24-2.76-2.93-4.96-5.53-4.96-5.93s.81-.49,1.87-.33c2.68.57,4.55-2.03,5.53-7.72.57-3.25,1.54-5.69,2.84-7.07,1.06-1.14,1.95-2.6,1.95-3.17s.89-2.03,2.03-3.25c1.54-1.71,2.68-2.19,4.71-1.95,2.36.24,2.68,0,3.33-2.76.89-3.49,2.6-4.47,4.55-2.68,2.44,2.19,4.14,1.54,3.9-1.54-.24-3.58,3.01-7.96,5.53-7.39,1.54.33,1.87-.08,2.28-3.17.65-4.06,1.06-4.55,6.09-6.5,2.6-.98,3.74-1.14,4.63-.41.81.65,1.14.49,1.54-1.14.41-1.46,1.95-2.6,6.18-4.63,4.71-2.19,5.69-3.01,6.26-5.2.81-2.93,3.98-3.82,6.18-1.71,1.71,1.71.41,4.47-2.19,4.47-1.3,0-2.44,1.06-4.06,3.66-1.22,2.03-3.49,4.47-5.04,5.36-1.54.98-2.84,2.36-2.84,3.09s-.41,1.79-.89,2.28-1.38,1.79-1.87,2.84c-.49,1.06-1.79,1.95-2.93,2.11-4.31.49-4.47.89-1.63,3.82,2.28,2.36,3.33,2.84,6.01,2.84,1.95,0,4.39.65,5.77,1.63,1.38.89,3.41,1.63,4.71,1.63,1.22,0,2.19.41,2.19.81,0,.49-1.3.65-3.33.33-2.84-.49-3.33-.33-3.74,1.22-.24.89-.89,1.71-1.54,1.71-1.87,0-2.76,2.76-1.87,6.01.73,2.52.57,3.41-1.06,6.26l-1.87,3.33,3.25,2.68c2.93,2.44,3.09,2.84,1.63,3.25-.89.33-2.19.89-2.84,1.3-3.01,1.87-5.61,2.6-9.34,2.68l-4.06.08v2.84c.08,1.87-.49,3.33-1.63,4.23-2.76,2.28-.49,3.49,6.91,3.49,6.34,0,6.42,0,9.67,3.17,3.09,3.01,3.41,3.17,7.07,2.6,2.11-.24,4.31-.89,4.88-1.3.73-.65,2.11-.16,5.12,1.71,3.41,2.03,4.71,2.44,6.83,1.95,5.61-1.3,11.38-.73,17.63,1.95,3.33,1.38,6.18,2.52,6.34,2.52.08,0,.16-153.26.16-340.48V0h-188.52v1.95Zm-221.84,23.65c0,1.06-.65,2.36-1.54,2.76-1.38.81-1.38.73-.16-1.95,1.54-3.33,1.71-3.41,1.71-.81Zm45.42,13.33c.89.57.81.89-.49,1.63-1.79.89-2.68.49-2.68-1.3,0-1.22,1.46-1.38,3.17-.33Zm-87.6,13.9c.41,0,.73.33.73.81,0,1.3-3.01.89-3.58-.49-.41-.98-.16-1.22.81-.81.65.24,1.63.49,2.03.49Zm-12.43,3.9c.16,1.46-.08,2.6-.57,2.6-1.63,0-3.33-1.06-3.33-2.03,0-.57-.49-1.22-.98-1.46-1.22-.41,2.52-2.19,3.82-1.87.49.08.89,1.38,1.06,2.76Zm-12.03,13.57c.81,1.06.73,1.22-.73,1.22-.98,0-1.71-.49-1.71-1.22,0-.65.33-1.22.73-1.22s1.14.57,1.71,1.22Zm-16.58,9.91c-.65.65-2.93-.41-2.93-1.38,0-.57.49-.57,1.71,0,.89.57,1.46,1.14,1.22,1.38Zm-29.25,18.45c1.22.98,1.38,1.38.57,2.19-.89.89-1.06.81-1.06,0,0-.65-.65-1.63-1.38-2.19-.81-.57-1.06-1.14-.57-1.14.41,0,1.54.49,2.44,1.14Zm22.1,6.99c.24,1.63.08,1.79-1.63,1.3-.98-.33-2.36-.65-3.01-.65-.73-.08-.49-.65.73-1.63,2.28-1.87,3.58-1.54,3.9.98Zm-3.9,5.77c0,.49-.33.57-.81.33-.41-.24-.81-.89-.81-1.3,0-.49.41-.57.81-.33.49.24.81.89.81,1.3Zm-9.34,6.99c1.14,1.71,2.03,3.58,2.03,4.31-.08,1.87-4.88-3.82-4.88-5.69,0-2.28.49-2.03,2.84,1.38Zm-6.83,7.56c2.36,1.3,1.87,2.52-.65,1.95-2.84-.65-3.01-.81-2.28-1.87.65-1.14.89-1.14,2.93-.08Zm-4.96,5.44c0,.81-.33,1.14-.65.65s-.89-1.06-1.3-1.46c-.41-.33-.16-.57.57-.57.81,0,1.38.65,1.38,1.38Zm-23.57,62.33c0,.65-.49,1.3-1.14,1.54-.81.33-.98,0-.73-1.14.49-1.79,1.87-2.11,1.87-.41Zm-13.81,39.17c0,.65-1.06,1.63-2.44,2.03-3.01,1.14-3.09,2.76-.16,4.31l2.19,1.14-2.44.89c-4.96,1.87-4.79,1.87-3.66.49.89-1.06.73-1.22-.98-1.22-1.14,0-2.19-.16-2.44-.41-.65-.65,7.64-8.53,8.94-8.53.49,0,.98.57.98,1.3Zm-8.78,11.05c-1.38,1.38-1.22,2.28.33,2.28.73,0,1.14.57.98,1.38-.33,1.63-3.41,2.28-6.18,1.3-1.71-.65-1.63-.81,1.63-3.33,3.41-2.6,5.04-3.41,3.25-1.63Zm-27.3,23.24c-.33.24-1.14-.16-1.95-.98q-1.3-1.46.49-.49c1.06.49,1.71,1.14,1.46,1.46Zm-12.27,7.48c-.24.41-.98.81-1.46.81-.57,0-.49-.33.24-.81,1.54-.98,1.87-.98,1.22,0Zm-4.47,31.28c-.57.73-1.22,1.06-1.38.89-.57-.57.57-2.11,1.54-2.11.49,0,.49.49-.16,1.22Zm2.44,7.31c0,.73-.73,1.22-2.03,1.22-2.36,0-2.76-1.3-.57-1.87,2.44-.65,2.6-.57,2.6.65Zm-28.85,1.22c-.24.41-1.14.81-1.87.73-1.14,0-1.06-.16.24-.73q2.19-.89,1.63,0Zm10.81,1.22c-.24.24-.73-.16-.98-.98-.49-1.14-.41-1.22.41-.49.57.57.81,1.22.57,1.46Zm10.73,4.47c0,.49-.33.81-.65.81-1.38,0-2.6-2.03-2.6-4.47v-2.44l1.63,2.68c.89,1.46,1.63,3.01,1.63,3.41Zm-14.46,21.21c.57,0,.08.41-1.14.81-1.22.49-2.44,1.54-2.68,2.44-.33.81-.81,1.54-1.22,1.54s-.24-1.46.41-3.33c1.71-4.79,2.19-5.36,2.93-3.33.41.98,1.14,1.79,1.71,1.87Zm162.36,7.31c.33.65.98,2.03,1.54,3.01.89,1.71.81,1.87-.33,1.63-.73-.08-1.87-1.63-2.44-3.33-.73-2.03-.73-3.01-.16-2.76.49.16,1.14.81,1.38,1.46Zm-4.39,6.83c2.84,1.54,4.14,1.79,5.28,1.14,1.22-.57,1.54-.49,1.54.49,0,.65.57,1.22,1.22,1.22s1.22.73,1.22,1.63c0,2.11-2.03,2.11-6.09,0-1.79-.98-3.9-1.54-4.63-1.3-1.95.49-5.04-2.93-3.74-4.23,1.22-1.22.73-1.3,5.2,1.06Zm-9.43-.41c0,.41.49.81,1.14.81s1.3.57,1.63,1.22c.49,1.38-.57,1.54-2.84.41-1.63-.89-2.19-3.25-.73-3.25.49,0,.81.33.81.81Zm-4.88,2.44c-1.54,1.06-2.44,1.06-2.44,0,0-.49.81-.81,1.87-.81,1.46,0,1.54.16.57.81Zm28.2.49c-.24.24-.98.33-1.54.08-.65-.24-.41-.49.49-.49.89-.08,1.38.16,1.06.41Zm-122.38,15.52c1.06,1.3.98,1.38-.24.33-.81-.57-1.46-1.22-1.46-1.38,0-.65.65-.24,1.71,1.06Zm-8.45,60.38c0,1.71-.41,2.44-1.38,2.44-.73,0-2.52,1.3-4.06,2.84-3.33,3.41-3.9,3.49-4.23.57-.41-3.17.89-6.66,2.28-6.09.57.24,1.38-.16,1.63-.89.33-.81,1.46-1.3,3.09-1.3,2.44,0,2.68.24,2.68,2.44Zm1.06,8.04c0,.98-1.63,2.03-2.19,1.46s.49-2.19,1.46-2.19c.41,0,.73.33.73.73Zm45.51,24.78c0,.24-.33.65-.81.89-.41.24-.81.08-.81-.33,0-.49.41-.89.81-.89.49,0,.81.16.81.33Zm-37.38,62.73c0,1.14-.24,1.14-1.22.33-.65-.57-1.22-1.14-1.22-1.3s.57-.33,1.22-.33,1.22.57,1.22,1.3Zm-42.82,5.77c-.57.16-1.54.16-2.03,0-.57-.24-.16-.41.98-.41s1.54.16,1.06.41Zm-55.99,46.48c.89.33,1.22.81.73,1.14-.41.24-1.54,0-2.36-.65-1.63-1.22-.89-1.46,1.63-.49Zm-5.53,3.98c-.33.24-1.14-.16-1.95-.98q-1.3-1.46.49-.49c1.06.49,1.71,1.14,1.46,1.46Zm7.23.24c.89,1.38.16,1.46-1.54.24-1.38-.98-1.38-1.14-.33-1.14.73,0,1.63.41,1.87.89Zm521.77,72.73c1.06.24,3.01.08,4.39-.33,1.95-.73,2.44-.65,2.44.24,0,.65-1.46,1.22-4.23,1.63-2.36.24-5.93.73-7.88.98-2.52.33-3.41.16-3.01-.49.33-.49,1.71-.89,3.09-.89,2.6,0,2.6.33,1.06-5.69-.24-1.14.16-.65.89,1.06.81,1.87,2.03,3.17,3.25,3.49Zm-43.56,65.82c0,1.46-.41,2.93-.89,3.25-.57.33-.73,0-.41-1.06s-.08-2.11-1.14-3.09c-1.3-1.14-1.38-1.71-.65-3.09.81-1.63.89-1.63,1.95-.16.65.81,1.14,2.68,1.14,4.14Zm-600.1,35.27c.24.41.08.81-.33.81-.49,0-.89-.41-.89-.81,0-.49.16-.81.33-.81.24,0,.65.33.89.81Zm123.76,48.59c.16.57-.24.98-.98.98s-1.3-.57-1.3-1.3c0-1.38,1.79-1.14,2.28.33Zm504.54,22.1c1.06,0,2.11.57,2.36,1.22.33.65,1.22,1.22,2.03,1.22,2.6,0,1.71,1.06-4.23,4.79-6.66,4.31-7.15,5.77-1.95,5.77,2.03,0,3.66.33,3.66.73,0,1.06-1.54,1.46-7.8,2.11-3.09.33-7.39,1.3-9.67,2.11-2.19.89-4.14,1.54-4.14,1.54-.08,0-.08-.65,0-1.46.08-1.63-3.98-2.36-6.01-1.06-.98.65-.98.98.24,2.36,1.3,1.46,1.3,1.63-.08,2.84-2.52,2.36-6.34,2.6-7.96.65-1.95-2.19-3.49-2.19-6.83.33-1.54,1.14-3.49,2.03-4.47,2.03s-2.19.49-2.76.98c-.89.89-.98.81-.24-.49.41-.89,2.93-3.09,5.53-4.96,5.04-3.49,8.45-8.29,8.45-11.86,0-2.93,1.46-3.98,5.44-3.98,2.84,0,3.98-.41,5.44-2.19,1.95-2.19,2.93-2.36,11.05-1.79,2.19.16,4.63-.24,6.09-.98,1.38-.73,2.76-.98,3.25-.57.41.33,1.54.65,2.6.65Zm14.06,1.22c-1.14.65-2.6,1.14-3.25,1.14-.73,0-.33-.49.81-1.14s2.6-1.14,3.25-1.14c.73,0,.33.49-.81,1.14Zm-815.44,5.36c-.81,1.22-2.03.81-1.54-.49.33-.65.81-.98,1.22-.73s.57.81.33,1.22Zm751.33,24.05c-.98,1.63-1.14,1.14-.41-.98.33-.73.73-1.14.89-.89.24.16,0,1.06-.49,1.87Zm-3.33,6.74c-.49.89-1.22,1.63-1.63,1.63-.49,0-.41-.73.16-1.63s1.3-1.63,1.71-1.63c.33,0,.24.73-.24,1.63Zm-56.07,49.81c5.44,2.68,7.23,4.96,3.9,5.12-1.06,0-2.36.16-3.01.41-.73.16-1.3-.33-1.54-1.3-.49-2.52-1.46-3.09-3.41-2.03-1.54.81-1.95.73-3.01-.81-.98-1.38-1.87-1.71-4.63-1.46-1.95.08-3.17-.08-2.93-.57s1.22-.81,2.19-.81,2.28-.49,2.76-1.06c1.3-1.22,2.84-.81,9.67,2.52Zm-55.42.73c.73.73,1.46.73,3.09-.08,1.95-.89,2.11-.81,1.14.24-1.3,1.63-5.36,1.71-6.01.08-.49-1.46.41-1.63,1.79-.24Zm46.32,15.85c1.38-.33,2.76-.16,3.01.16.24.41,1.22.57,2.28.24,1.63-.41,1.71-.33.65.98-.89,1.06-1.87,1.3-3.82.89-3.41-.57-4.47.98-1.95,3.01s.49,1.87-2.36-.16c-1.3-1.06-4.47-2.03-7.72-2.52-3.41-.41-6.91-1.54-8.94-2.84l-3.33-2.03,3.25.49c1.79.33,3.82.73,4.55.89.73.24,1.95-.16,2.6-.81,1.06-1.14,1.3-1.14,1.71-.08.65,1.79,3.01,1.46,3.49-.49.49-1.63.57-1.63,2.28.57,1.46,1.87,2.19,2.11,4.31,1.71Z"/>
  <path class="cls-1" d="m551.67,31.28c-1.63,1.14-3.66,2.03-4.47,2.03-2.11,0-3.74,2.11-2.68,3.49.57.65.57,1.46.16,2.19-1.14,1.79-.98,2.44.65,2.44,2.6,0,6.42-3.09,8.45-6.74,2.68-4.79,1.87-6.09-2.11-3.41Z"/>
  <path class="cls-1" d="m541.43,36.57c0,.41.41.81.81.81.49,0,.81-.41.81-.81,0-.49-.33-.81-.81-.81-.41,0-.81.33-.81.81Z"/>
  <path class="cls-1" d="m530.54,50.62c-1.06.73-1.3,1.63-.89,3.25.33,1.22.81,2.19,1.14,2.19.57,0,3.33-5.2,3.33-6.09,0-.81-2.19-.41-3.58.65Z"/>
  <path class="cls-1" d="m467.49,113.03c0,.89-.41,2.44-.89,3.33-1.54,2.93.41,3.41,3.17.73,3.41-3.17,3.49-5.77.16-5.77-1.95,0-2.44.33-2.44,1.71Z"/>
  <path class="cls-1" d="m411.25,238.98c-1.71.89-3.09,1.95-3.09,2.36,0,.98,5.69,1.06,7.23.08.65-.41.89-1.3.49-2.44-.65-2.03-.81-2.03-4.63,0Z"/>
  <path class="cls-1" d="m363.15,345.03c-.73,2.68.08,5.2,1.63,5.2s1.54-5.12,0-6.42c-.89-.73-1.22-.49-1.63,1.22Z"/>
  <path class="cls-1" d="m209.41,362.82c-.65,1.54-1.54,2.84-1.95,2.84-1.3,0-.98,2.19.49,3.66,1.95,1.87.81,2.36-2.19.89l-2.52-1.3.49,2.44c.41,2.03.16,2.44-1.14,2.44-1.87,0-2.19,2.28-.57,3.98.98,1.14.65,1.14-3.09-.41-.89-.41-1.22.08-1.22,1.79-.08,2.19-.08,2.28-1.22.81-1.46-1.95-3.66-1.14-3.66,1.38,0,1.06.89,3.33,2.03,4.96,1.46,2.19,2.03,4.06,2.03,6.99,0,3.98-.08,4.06-2.44,4.06-2.93,0-3.09.98-.57,2.68,1.38.98,1.54,1.46.81,2.28-.81.81-1.46.81-3.09.08-3.82-1.71-7.07,1.79-4.31,4.55.73.73.08.98-2.93.98-3.49,0-3.9.16-3.49,1.63.24,1.06,0,1.63-.65,1.63-2.28,0-2.03,1.71.33,2.52,1.38.49,2.52,1.14,2.52,1.46,0,1.22-3.01,3.33-4.14,2.93-.65-.16-1.63-.08-2.28.33-1.63,1.06.24,3.33,2.68,3.33,3.58,0,9.26-2.52,9.83-4.31.49-1.63.65-1.63.98-.33.24.81-.16,2.11-.89,2.93s-1.3,2.84-1.3,4.79c0,2.76-.41,3.58-2.44,5.04-1.38.98-2.19,2.11-1.95,2.52.33.49,1.22.24,2.19-.65,1.71-1.38,1.71-1.3,0,.65-2.03,2.28-2.44,3.98-.81,3.98.49.08.16.73-.89,1.63-1.06.89-2.28,2.84-2.68,4.31-.41,1.54-1.46,3.58-2.36,4.63-1.79,2.03-1.46,3.25.81,3.25,2.44,0,4.06-.89,4.06-2.36,0-.73.57-2.03,1.22-2.84.65-.89,1.22-2.28,1.22-3.01,0-.81.89-2.11,2.03-2.93,1.95-1.38,2.03-1.71,1.14-4.23-1.14-3.09-.65-3.66,5.28-6.74l3.17-1.63-.49,2.76c-.33,1.46-.73,4.31-1.06,6.34-.33,2.03-.89,4.06-1.3,4.63-.49.65-.16,2.03,1.06,4.14l1.87,3.25-2.6,2.19c-1.46,1.22-2.6,2.52-2.6,3.01,0,.41-.89,1.95-2.03,3.41s-2.03,3.41-2.03,4.39-.65,1.87-1.63,2.19c-.89.24-1.63.81-1.63,1.14,0,1.06,4.14,2.6,5.61,2.11.98-.33,1.95.49,3.25,2.84,2.19,3.98,3.74,3.82,3.74-.24,0-3.58.73-3.82,2.36-.65,1.54,2.93,3.09,3.49,5.28,1.95.98-.65,2.52-1.06,3.41-.81.81.24,2.36-.24,3.41-1.06,1.3-1.06,2.28-1.3,3.09-.73.65.33,1.79.49,2.68.24,1.06-.33,1.3-.16.89.49-.33.49-1.38.73-2.44.49-1.54-.41-2.52.24-4.88,2.93-3.66,4.31-4.23,6.58-2.6,9.99.73,1.46,1.06,3.49.81,4.47-.33,1.3,0,1.87,1.3,2.19,1.22.33,1.71,1.06,1.71,2.76,0,2.76.65,2.93,3.58.65,2.28-1.79,2.76-1.22.89,1.14-.57.89-.89,2.03-.73,2.6.33.73-.33,1.22-1.87,1.38-1.79.16-2.19.65-2.03,1.87.16.89.89,2.11,1.54,2.6,1.14.89,1.06,1.22-.81,2.76-1.3.98-2.19,2.44-2.19,3.66,0,1.14-.57,2.19-1.22,2.44-.89.33-1.14,1.06-.73,2.28q.49,1.63-.65.16c-.98-1.22-1.79-1.38-4.14-.98-2.11.41-3.58.16-5.04-.81-1.87-1.22-2.03-1.22-2.03,0,0,.73-.65,1.3-1.63,1.3s-1.38-.41-1.14-1.06c.16-.57-.73-2.11-2.03-3.33-1.87-1.87-2.84-2.19-4.55-1.79-1.95.49-2.11.81-1.63,2.76.33,1.22.73,3.58.98,5.2.41,3.01.33,3.09-3.41,4.71-3.33,1.38-3.74,1.87-3.17,3.41.89,2.93,2.11,3.17,4.96.98,3.17-2.44,3.98-2.11,5.12,1.95,1.54,5.69,1.14,6.99-3.74,11.46-4.39,3.98-5.36,4.47-8.94,4.23-.89-.08-2.19.41-2.76,1.06-.65.81-2.36,1.3-4.47,1.3-5.44,0-6.09.49-6.09,4.47,0,2.36.41,3.66,1.22,3.98.65.24,1.22.98,1.22,1.63,0,2.28,6.42,3.01,8.13.89,1.22-1.46,3.74-1.63,4.55-.24.33.49.81,2.03,1.14,3.41.41,1.95.89,2.44,2.28,2.28.98-.08,2.6-.24,3.58-.41,1.38-.08,2.19.57,3.33,3.09,2.6,5.36,5.69,6.42,9.67,3.33,1.87-1.38,3.33-1.87,4.55-1.54l1.87.49-1.79,1.22c-.89.65-2.19,2.44-2.84,3.9-1.46,3.41-3.33,3.58-9.43.73-5.2-2.44-10.4-2.68-12.27-.57-.81.81-1.38,1.95-1.38,2.44,0,1.22-3.01,1.3-3.74,0-.81-1.22-2.76,1.54-2.76,3.9,0,1.87-4.63,6.01-6.83,6.01-.73,0-1.87.89-2.6,2.03s-1.79,2.03-2.36,2.03-1.63.89-2.36,2.03c-.98,1.54-2.03,2.03-4.14,2.03-1.46,0-3.74.41-4.96.81-2.6,1.06-1.79,2.28,2.28,3.58,1.71.57,2.76,1.54,3.09,2.84.73,3.17,2.11,2.84,4.14-.73,1.54-2.76,2.28-3.33,3.82-3.01,1.22.24,2.44-.24,3.49-1.3,1.54-1.63,1.63-1.63,5.44-.33,2.11.73,4.31,1.38,4.96,1.38.57,0,2.36,1.06,3.9,2.44,4.55,3.98,6.34,3.01,9.26-4.88,1.71-4.79,1.87-4.88,4.79-4.88,5.77,0,12.03,3.25,13.16,6.74l.49,1.79.57-1.87c.65-2.11,1.87-2.28,4.14-.57,1.71,1.3,5.2,1.63,5.2.49,0-.49-.33-1.06-.81-1.3-1.95-1.22-.41-1.63,4.96-1.38,3.17.24,6.09,0,6.58-.49s2.11-.08,4.79,1.22c3.66,1.71,4.79,1.87,10.08,1.38,5.28-.49,6.26-.33,8.37,1.22,2.84,2.03,5.28,2.19,6.66.49.57-.65,1.95-1.22,3.17-1.22,1.14,0,2.68-.33,3.33-.81.73-.41,1.54-.41,2.19.08,1.22,1.06,4.31-.41,4.31-2.03,0-.57,1.14-1.3,2.6-1.63,3.41-.65,4.71-1.87,4.71-4.47,0-1.22.41-2.6.89-3.09,1.71-1.71-.16-2.93-3.82-2.36-3.09.41-3.82.16-5.61-1.63-2.44-2.44-2.52-2.76-.41-2.76,1.87,0,3.58-2.76,3.01-4.88-.33-1.3,0-1.46,2.19-1.14,1.38.24,3.09,0,3.74-.49,1.06-.73.89-1.06-.81-2.44q-1.95-1.54-.24-1.06c3.01.73,5.61-1.71,8.86-8.21,2.6-5.28,2.93-6.66,2.6-10.24-.65-6.42-5.04-10.16-14.46-12.11l-4.47-.98-2.19,2.68-2.19,2.68-2.11-2.19c-1.14-1.22-2.03-2.36-2.03-2.6s1.22-1.06,2.68-1.79c4.71-2.44,5.04-5.04,1.38-11.46-1.87-3.33-2.19-4.31-1.22-4.31,1.71,0,1.54-1.63-.81-6.66-2.36-4.96-2.52-6.83-.81-7.48,2.03-.73,1.54-4.47-.73-5.36-1.3-.49-2.19-1.63-2.52-3.41-.89-3.98-3.01-6.5-7.48-8.69-2.11-1.14-3.98-2.11-4.06-2.11-.65-.33-2.76-22.35-2.36-24.54.24-2.03,0-2.93-1.14-3.74-.89-.57-2.28-2.84-3.25-5.04-1.71-4.06-2.11-4.47-7.96-8.61l-3.58-2.52-1.71,1.63c-1.79,1.63-1.87,1.63-5.44.16l-3.66-1.54h3.98c3.25-.08,3.82-.33,3.41-1.38-.49-1.14-.08-1.3,2.84-.81,2.11.33,3.74.16,4.47-.41,1.54-1.3,1.46-2.03-.65-3.9l-1.71-1.71,3.82-3.33c4.31-3.82,11.86-14.06,11.86-16.17,0-.73,1.14-2.36,2.52-3.74,3.33-3.17,4.14-4.79,3.49-7.23-.65-2.76-3.74-4.23-11.05-5.28-3.25-.49-7.31-1.46-9.02-2.19-2.6-1.14-3.74-1.22-6.74-.41-1.95.57-4.71.98-6.01.98-1.38,0-2.44.41-2.44.89,0,.41-.33.57-.81.33-.41-.24-.81-1.3-.81-2.19,0-1.46.33-1.63,2.76-1.22,2.19.33,3.09.08,4.55-1.46,1.87-2.03,1.63-3.66-.65-3.66-.73,0,2.11-2.28,6.34-4.96,8.21-5.28,8.94-5.93,8.94-8.37,0-.89.57-2.19,1.3-3.01,1.79-2.03.73-3.25-2.76-3.09-1.63.08-6.01-.16-9.67-.49-5.04-.49-6.99-.41-7.96.41s-1.22.73-1.22-.49c0-1.46-4.47-4.39-6.58-4.39-.41,0-1.38,1.3-2.03,2.84Zm-18.12,146.43c.57,1.46.49,2.44-.08,3.01s-.81.49-.81-.41c0-.57-.24-1.95-.49-3.01-.73-2.52.33-2.28,1.38.41Z"/>
  <path class="cls-1" d="m134.57,445.87c-2.84,1.46-3.49,2.68-1.46,2.68,1.38,0,1.63,1.3.41,2.03-.49.33-.65.89-.41,1.3s-.08.49-.73.24c-.73-.24-1.3-.08-1.3.33,0,.49-.98.98-2.19,1.14-3.01.33-3.58,3.41-.89,4.79,1.06.49,2.11,1.38,2.44,1.95.41.57,1.54.81,2.84.57,2.03-.41,2.19-.33,1.14.89-.65.81-2.28,1.38-4.06,1.38-3.82,0-5.28,1.06-4.71,3.17l.41,1.71-2.28-1.63c-2.76-1.95-4.55-2.03-5.53-.33-.57,1.06-.81.89-1.22-1.14-.57-3.01-3.66-4.23-10.32-4.23-4.63,0-4.71.08-5.2,2.6-.57,3.09-.16,3.66,1.63,2.19,1.3-1.06,1.38-.89.81,1.14-.33,1.38-.16,2.76.33,3.41.65.73.41,1.14-.89,1.46-2.6.65-.98,2.44,1.71,1.87,2.52-.49,3.33,0,2.68,1.63-.33.81-1.22.98-3.41.65-2.44-.41-3.25-.08-4.88,1.63-1.14,1.14-2.84,2.11-3.9,2.11-2.52,0-3.17,1.95-1.54,4.47.98,1.54,2.03,2.03,4.14,2.03,3.58,0,5.61,1.95,4.39,4.23-1.14,2.11-.16,2.76,5.12,3.49,2.11.33,3.9.89,3.9,1.38s-.98.65-2.19.41c-1.63-.33-2.93.16-4.71,1.63-1.3,1.14-2.44,2.52-2.52,3.01-.08,2.36-1.38,4.55-2.68,4.55-.73,0-2.11.57-3.01,1.22-.81.65-2.19,1.22-2.93,1.22-.81,0-1.46.41-1.46.89,0,.65,1.14.73,3.41.41l3.41-.57-2.11,1.71c-1.14.89-3.09,1.63-4.23,1.63-1.95,0-2.44.65-2.19,2.93.08.49-.89.73-2.36.49-3.01-.41-8.13.49-8.13,1.46,0,.41,1.54,1.63,3.49,2.76,3.09,1.95,3.25,2.11,1.3,2.11-1.14,0-3.17.89-4.47,2.03-2.28,1.95-2.28,2.11-1.14,4.23.73,1.22,2.11,2.68,3.17,3.17l1.87.98-1.87.57c-3.25,1.06.57,2.28,5.44,1.79,2.44-.24,4.39-.16,4.39.16s-1.63,1.38-3.66,2.36c-4.55,2.19-4.63,3.41-.41,3.41,1.79,0,3.25.33,3.25.81,0,1.06,2.93,1.06,4.96-.08,1.22-.65,2.52-.49,5.28.57,3.01,1.14,3.82,1.22,4.39.33.33-.57.98-.81,1.46-.49.49.24,2.19-.24,3.82-1.22,2.28-1.38,2.84-2.19,2.52-3.49-.33-1.38-.08-1.22,1.38.65l1.87,2.28,2.52-2.11c1.38-1.14,3.01-1.95,3.66-1.71,1.71.65,5.53-.98,5.53-2.44,0-1.54.57-1.54,4.88,0,2.6.89,4.23,1.06,6.34.41,2.28-.57,3.25-.49,4.23.41.73.65,2.11,1.22,3.09,1.22,1.46,0,1.79-.49,1.79-2.76,0-1.54.49-2.93,1.06-3.17s3.17-3.58,5.77-7.39l4.71-7.07-.33-5.53c-.24-4.55-.08-5.53.89-5.12.89.33.98-.08.57-1.79-.33-1.38-.16-2.76.41-3.41.73-.89.73-1.63,0-3.01-.49-.98-.81-3.25-.73-5.04.24-2.84.65-3.41,3.41-4.88,1.71-.89,3.49-2.44,3.98-3.49.49-.98,1.54-1.79,2.52-1.79,5.04-.08,6.99-2.36,6.99-8.13,0-2.36-.49-3.49-1.54-4.23-1.22-.73-1.38-1.3-.81-2.36.89-1.79-.65-5.61-2.28-5.61-.81,0-.98-.73-.65-2.76.73-3.58-.16-6.18-1.95-6.18-.73,0-1.79-.41-2.36-.98s-3.25-1.06-6.09-1.14c-4.23-.16-5.28.08-6.5,1.63q-1.38,1.71-2.84.08c-2.6-3.01-4.23-3.82-9.34-4.96-6.18-1.3-6.09-1.3-9.26.24Zm14.79,5.12c-.24.41-.89.81-1.3.81-.49,0-.57-.41-.33-.81.24-.49.89-.81,1.3-.81.49,0,.57.33.33.81Zm-41.04,58.51c0,.41-.41.81-.89.81-.41,0-.57-.41-.33-.81.24-.49.65-.81.89-.81.16,0,.33.33.33.81Z"/>
  <path class="cls-1" d="m569.87,487.48c0,1.06,2.36,2.84,3.01,2.28.57-.65-1.22-3.01-2.28-3.01-.41,0-.73.33-.73.73Z"/>
  <path class="cls-1" d="m415.16,826.57c-.73.98-1.3,2.84-1.3,4.06,0,2.03-.24,2.19-2.36,1.79-1.63-.33-2.44-.16-2.76.81-.33.73-1.06,1.3-1.63,1.3-2.36,0-6.26,2.6-6.26,4.06,0,.89-.73,1.95-1.71,2.52l-1.71.89,1.87,1.95c1.54,1.71,1.63,1.95.41,2.44-1.79.73-1.63,3.33.33,3.98s2.03,1.46.41,2.84c-1.87,1.54-1.54,3.49.41,3.01,1.87-.49,2.19.65.41,1.38-.65.24-1.22,1.14-1.22,1.95,0,.89.57,2.03,1.22,2.6s1.22,1.63,1.22,2.36c0,2.03,1.63,3.33,4.14,3.33,1.71,0,2.28.41,2.52,1.79.33,2.28,2.93,2.93,3.58.89.24-.81,1.38-3.33,2.44-5.53,1.22-2.6,1.95-5.53,1.95-7.96,0-2.28.65-5.2,1.63-7.07,1.79-3.58,2.11-8.53.65-11.95-.49-1.22-.98-4.63-.98-7.48-.08-5.69-1.14-6.99-3.25-3.98Z"/>
  <path class="cls-1" d="m409.3,876.55c-5.44,4.63-11.46,8.37-13.57,8.37-1.22,0-2.76-.81-3.66-2.03-2.11-2.6-2.6-2.6-2.6.33,0,1.38-.33,2.68-.81,2.93-.98.57-1.14,7.72-.16,7.72.33,0,1.14-.49,1.63-.98,1.3-1.3,2.11-.16,3.82,5.36,1.38,4.47,1.63,8.61.49,8.61-.81,0-1.54,3.25-1.06,4.71.16.57.81.98,1.46.98,1.3,0,1.54,1.3.33,2.03-.41.24-.81,1.87-.81,3.58s-.57,4.47-1.22,6.01c-1.54,3.82-1.54,6.18.16,8.04,1.22,1.38,1.22,1.54-.24,2.76-1.46,1.14-1.38,1.22,1.06.73,2.36-.49,2.68-.33,3.09,1.79.89,3.9,1.14,4.31,2.44,4.31.73,0,2.76-.73,4.47-1.63,2.44-1.22,3.25-2.11,3.25-3.66,0-2.52,1.63-6.09,2.76-6.09.49,0,2.52.98,4.47,2.03,1.95,1.14,3.9,1.79,4.23,1.46,1.22-1.22,3.17-10.32,3.17-14.55,0-2.28.41-6.09.81-8.45.65-3.58.57-4.55-.41-5.69-1.54-1.71-1.54-3.58.08-4.96,3.82-3.17,4.47-10.65.89-11.62-1.38-.33-1.46-.57-.57-1.63.89-1.14.65-1.46-1.63-2.44-2.68-1.06-2.68-1.14-.89-2.03,1.14-.65,1.71-1.63,1.54-2.68-.24-1.79-.49-1.95-6.01-4.47l-3.33-1.54-3.17,2.68Z"/>
  <path class="cls-1" d="m292.94,902.14c-1.38,1.38,1.06,3.9,3.74,3.9,1.14,0,3.25.89,4.79,2.11,1.46,1.14,3.01,1.87,3.41,1.54,1.3-.73-1.14-6.42-3.25-7.48-2.52-1.3-7.39-1.38-8.69-.08Z"/>
  <path class="cls-1" d="m272.22,904.74c-5.44,2.28-11.13,5.85-11.13,6.99,0,1.22,3.33,2.6,5.36,2.19,1.63-.24,2.03.08,2.44,1.79.89,3.9,1.06,4.31,2.68,3.74,1.06-.33,2.03.16,3.17,1.71l1.54,2.28,4.47-4.23c2.44-2.28,4.96-5.12,5.53-6.34,1.06-1.87,1.06-2.19-.41-3.25-.81-.65-2.52-1.14-3.82-1.14-2.52,0-2.68-.49-1.46-3.58.73-1.95.57-2.11-1.46-2.11-1.22,0-4.31.89-6.91,1.95Z"/>
  <path class="cls-1" d="m1009.24,907.59c-.16.81-.08,2.03.33,2.6.49.81.73.33.73-1.54,0-2.93-.41-3.41-1.06-1.06Z"/>
  <path class="cls-1" d="m258.89,916.61c-1.95.81-4.63,5.28-3.9,6.5.98,1.54,4.55.81,6.5-1.3,2.28-2.44,2.52-3.58,1.06-5.04-1.14-1.14-1.22-1.14-3.66-.16Z"/>
  <path class="cls-1" d="m262.39,924.17c-1.71,1.3-1.3,3.58.73,4.39,2.28.81,5.44-1.14,5.12-3.25-.33-2.19-3.58-2.84-5.85-1.14Z"/>
  <path class="cls-1" d="m662.67,936.27c-.98,1.95-1.79,4.63-1.79,5.85,0,1.79.24,2.11,1.54,1.71.89-.24,1.79-.16,1.95.16.24.33,2.03.65,3.9.65,4.55,0,5.36-2.11,1.63-4.31-1.38-.73-2.52-1.95-2.52-2.6s-.73-2.11-1.54-3.17l-1.46-1.95-1.71,3.66Z"/>
  <path class="cls-1" d="m978.69,943.75c-10.4,8.94-12.35,9.99-20.56,10.81-4.88.49-5.36.89-3.74,3.41,1.3,2.11.24,4.14-2.11,4.14-3.25,0-4.55.89-5.77,3.82-1.06,2.36-1.38,2.68-2.76,1.87-3.09-1.63-2.68.81.73,5.28,3.41,4.39,3.49,4.47,7.64,4.47,2.36,0,4.71-.49,5.28-1.06.81-.81,1.22-.73,2.03.41,2.11,2.84,4.14,1.71,3.82-1.95-.08-.89,1.63-2.44,4.96-4.31,5.69-3.33,6.34-4.06,6.34-6.74,0-1.14.49-1.79,1.46-1.79.81,0,2.19-.57,3.09-1.22.81-.65,2.36-1.22,3.41-1.22,2.76,0,2.11-1.87-1.3-3.66-4.39-2.36-4.14-4.06,1.06-10.08,5.53-6.26,7.15-8.69,6.74-9.91-.16-.49-4.79,3.01-10.32,7.72Z"/>
  <path class="cls-1" d="m804.31,999.49c-.81.89-2.19,1.63-3.01,1.63s-2.44.98-3.66,2.11c-2.68,2.68-4.47,2.03-3.82-1.3.57-2.84-.16-3.09-3.82-1.14-1.38.65-3.09,1.06-3.74.81-.65-.33-2.76-.08-4.55.41-2.44.65-3.41.65-3.66,0-.65-1.87-6.99-.98-12.11,1.71-4.79,2.44-5.12,2.52-6.58,1.22-.81-.73-2.19-1.38-3.01-1.38-1.38,0-1.38-.08,0-1.63.98-1.06,1.14-1.63.49-1.63-.57,0-1.95.73-3.09,1.63-2.76,2.11-3.98,2.03-5.61-.41-1.71-2.6-4.23-2.6-5.2-.08-.41,1.14-.65,4.14-.57,6.74l.16,4.71,2.84-.24c1.54-.16,5.53-.24,8.78-.24,3.41,0,5.85-.33,5.85-.81,0-.73,2.44-.57,7.96.57.98.16,2.19,1.3,2.6,2.36,1.06,2.68,3.25,2.6,10.65-.49,3.33-1.3,9.83-3.41,14.55-4.55,11.54-2.84,11.46-2.76,11.21-7.56-.16-2.28-.49-4.06-.73-4.06s-1.14.73-1.95,1.63Z"/>
  <path class="cls-1" d="m534.93,1019c0,.41.57.81,1.3.81.65,0,.98-.41.73-.81-.24-.49-.81-.81-1.3-.81-.41,0-.73.33-.73.81Z"/>
  <path class="cls-1" d="m540.05,1026.88c.73.73,1.63,1.06,1.95.73s.08-.89-.57-1.3c-2.03-1.3-2.84-.89-1.38.57Z"/>
</svg>