<?xml version="1.0" encoding="UTF-8"?>
<svg id="Layer_1" data-name="Layer 1" xmlns="http://www.w3.org/2000/svg" viewBox="0 0 580.09 576.21">
  <defs>
    <style>
      .cls-0 {
        fill: #652B80;
      }
      .cls-1 {
        fill: #FB7959;
      }
    </style>
  </defs>
  <g>
    <polygon class="cls-0" points="250.93 193.92 250.93 177.1 206.44 177.1 206.44 285.96 226.31 285.96 226.31 240.7 244.51 240.7 244.51 222.97 226.31 222.97 226.31 193.92 250.93 193.92"/>
    <path class="cls-0" d="m312.55,231.53c0-42.97-11.47-56.57-29.05-56.57s-29.05,13.61-29.05,56.57,11.47,56.57,29.05,56.57,29.05-13.61,29.05-56.57h0Zm-36.39,11.47v-22.94c0-23.55,2.75-28.29,7.34-28.29s7.34,4.74,7.34,28.29v22.94c0,23.55-2.75,28.29-7.34,28.29s-7.34-4.74-7.34-28.29h0Z"/>
    <path class="cls-0" d="m342.36,239.17h4.74l9.33,46.79h20.03l-11.77-51.38c8.87-5.2,11.62-17.43,11.62-26.61,0-22.94-12.54-30.89-31.5-30.89h-22.32v108.87h19.88v-46.79h-.01Zm0-46.17h3.06c6.73,0,11.01,3.36,11.01,15.14,0,7.8-2.75,15.14-10.09,15.14h-3.98v-30.27h0Z"/>
    <path class="cls-0" d="m232.38,384.96h16.06l2.9,24.16h19.11l-13.45-108.87h-28.75l-15.29,108.87h16.67l2.75-24.16Zm8.26-67.89h.31l5.81,51.99h-12.38l6.27-51.99h0Z"/>
    <polygon class="cls-0" points="323.04 392.3 297.66 392.3 297.66 300.26 277.79 300.26 277.79 409.12 323.04 409.12 323.04 392.3"/>
    <path class="cls-0" d="m290.04,97.7c-104.99,0-190.4,85.41-190.4,190.4s85.41,190.4,190.4,190.4c36.81,0,72.54-10.53,103.31-30.44l-9.14-14.12c-28.05,18.15-60.61,27.74-94.17,27.74-95.71,0-173.58-77.87-173.58-173.59s77.87-173.57,173.58-173.57c47.65,0,91.28,16.7,122.87,47.03,33.18,31.86,50.72,75.62,50.72,126.56s-35.88,104.2-104.46,104.2h-7.68v-92.05h-19.88v108.87h27.56c35.92,0,66.78-12.79,89.25-36.97,20.66-22.24,32.03-52.09,32.03-84.05,0-110.33-80.08-190.41-190.41-190.41Z"/>
  </g>
  <g>
    <polygon class="cls-1" points="290.05 0 280.68 28.83 250.36 28.83 274.89 46.65 265.52 75.48 290.05 57.67 314.57 75.48 305.2 46.65 329.73 28.83 299.41 28.83 290.05 0"/>
    <polygon class="cls-1" points="299.41 529.56 290.05 500.72 280.68 529.56 250.36 529.56 274.89 547.38 265.52 576.21 290.05 558.39 314.57 576.21 305.2 547.38 329.73 529.56 299.41 529.56"/>
    <polygon class="cls-1" points="39.68 308.03 64.21 325.85 54.84 297.01 79.37 279.19 49.05 279.19 39.68 250.36 30.32 279.19 0 279.19 24.53 297.01 15.16 325.85 39.68 308.03"/>
    <polygon class="cls-1" points="164.87 33.54 155.5 62.37 125.18 62.37 149.71 80.19 140.34 109.03 164.87 91.21 189.39 109.03 180.02 80.19 204.55 62.37 174.23 62.37 164.87 33.54"/>
    <polygon class="cls-1" points="73.23 125.18 63.86 154.01 33.54 154.01 58.07 171.83 48.7 200.67 73.23 182.85 97.75 200.67 88.38 171.83 112.91 154.01 82.59 154.01 73.23 125.18"/>
    <polygon class="cls-1" points="82.59 404.37 73.23 375.54 63.86 404.37 33.54 404.37 58.07 422.19 48.7 451.03 73.23 433.21 97.75 451.03 88.38 422.19 112.91 404.37 82.59 404.37"/>
    <polygon class="cls-1" points="174.23 496.01 164.87 467.18 155.5 496.01 125.18 496.01 149.71 513.83 140.34 542.67 164.87 524.85 189.39 542.67 180.02 513.83 204.55 496.01 174.23 496.01"/>
    <polygon class="cls-1" points="580.09 279.19 549.78 279.19 540.41 250.36 531.04 279.19 500.72 279.19 525.25 297.01 515.88 325.85 540.41 308.03 564.93 325.85 555.57 297.01 580.09 279.19"/>
    <polygon class="cls-1" points="415.23 33.54 405.86 62.37 375.54 62.37 400.07 80.19 390.7 109.03 415.23 91.21 439.75 109.03 430.39 80.19 454.91 62.37 424.6 62.37 415.23 33.54"/>
    <polygon class="cls-1" points="491.71 171.83 482.34 200.67 506.87 182.85 531.39 200.67 522.02 171.83 546.55 154.01 516.23 154.01 506.87 125.18 497.5 154.01 467.18 154.01 491.71 171.83"/>
    <polygon class="cls-1" points="516.23 404.37 506.87 375.54 497.5 404.37 467.18 404.37 491.71 422.19 482.34 451.03 506.87 433.21 531.39 451.03 522.02 422.19 546.55 404.37 516.23 404.37"/>
    <polygon class="cls-1" points="424.6 496.01 415.23 467.18 405.86 496.01 375.54 496.01 400.07 513.83 390.7 542.67 415.23 524.85 439.75 542.67 430.39 513.83 454.91 496.01 424.6 496.01"/>
  </g>
</svg>