<svg version="1.1" id="Layer_1" xmlns="http://www.w3.org/2000/svg" xmlns:xlink="http://www.w3.org/1999/xlink" x="0px" y="0px"
	 viewBox="0 0 745.95 706.51" style="enable-background:new 0 0 745.95 706.51;" xml:space="preserve">
<path fill="currentColor" d="M570.84,311.87c2.74-8.49,4.87-15.61,6.37-20.76c0.77-2.64,7.18-25.02,11.42-53.57
	c0.77-5.2,1.22-8.94,0.19-13.71c-2.35-10.9-10.33-17.59-15.11-21.61c-10.2-8.59-15.3-12.89-67.23-52.51
	c-3.91-2.98-11.71-9.02-22.38-9.19c-6.12-0.1-10.66,1.77-12.48,2.48c-13.9,5.42-24.42,3.61-50.09,6.77
	c-34.96,4.3-53.89,12.4-82.66,14.25c-3.93,0.25-11.45,0.61-20.94-1.1c-9.77-1.76-17.46-4.95-22.57-7.48
	c-21.37-16.4-45.11-33.26-71.27-50c-22.59-14.45-44.48-27.2-65.33-38.46c-5.44-6.62-14.61-16.17-28.34-24.3
	c-13.08-7.74-25.26-11.2-33.47-12.86C90.93,19.89,84.9,9.94,78.87,0C52.58,70.88,26.29,141.76,0,212.64
	c5.66,0.56,13.75,1.61,23.32,3.76c7.73,1.73,25.35,6.18,54.97,20.83c18.64,9.22,14.55,8.89,34.71,19.1
	c36.98,18.73,50.59,19.77,56.18,19.95c13.53,0.43,24.65-2.79,31.84-5.53c9.77,3.62,19.54,7.25,29.32,10.87
	c1.39-3.34,2.77-6.68,4.16-10.02c2.36,1.56,5.96,3.97,10.32,6.94c27.64,18.88,26.39,20.43,34.15,24.23
	c20.54,10.05,42.62,5.7,51.44,3.96c9.25-1.82,16.65-4.71,21.74-7.06c4.16,1.85,10.73,4.2,19.1,4.86c8.21,0.65,14.95-0.58,19.32-1.73
	c0.09,2.18,0.67,9.04,5.96,15.1c3.76,4.31,8.12,6.17,10.32,6.94c7.92-1.36,15.83-2.72,23.75-4.09c11.85-4.93,21.24-5.61,27.75-5.27
	c5.65,0.3,10.17,1.42,18.3,1.01c7.06-0.36,12.8-1.67,16.58-2.74c4.37,4.31,9.76,9.02,16.3,13.6c4.43,3.1,8.7,5.68,12.67,7.81
	c-55.56,77.07-111.12,154.13-166.68,231.2c63.6,46.71,127.2,93.42,190.8,140.14c66.55-91.52,133.1-183.03,199.66-274.55
	C687.58,391.93,629.21,351.9,570.84,311.87z M533.13,274.56c-4.41-3.14-6.38-7.46-7.65-10.64c-2.91-7.26-7.09-20.72-11.12-38.36
	c5.19,3.65,10.65,7.32,16.39,10.97c3.67,2.34,7.29,4.57,10.86,6.69c-1.27,4.85-2.44,10.77-2.96,17.58
	c-0.48,6.24-0.31,11.81,0.11,16.49C537.34,276.87,535.27,276.08,533.13,274.56z"/>
</svg>
