<svg version="1.1" id="Layer_1" xmlns="http://www.w3.org/2000/svg" xmlns:xlink="http://www.w3.org/1999/xlink" x="0px" y="0px"
	 viewBox="0 0 784.31 471.91" style="enable-background:new 0 0 784.31 471.91;" xml:space="preserve">
<path fill="currentColor" d="M750.77,208.4c-6.41-7.36-17.05-19.66-29.12-36.95c-10.99-15.73-14.75-23.55-30.86-46.08
	c-7.81-10.92-11.84-15.95-18.26-21.3c-7.47-6.23-9.68-5.8-26.95-16.08c-8.52-5.07-18.51-11.06-29.99-20
	c-2.89-2.25-2.12-1.76-16.95-14.34c-14.5-12.3-21.81-18.49-24.78-20.43c-13.31-8.71-14.54-5.5-27.82-14.78
	c-4.43-3.09-8.85-6.64-16.52-10c-5.11-2.24-9.27-4.01-14.78-3.91c-3.65,0.07-7.79,0.96-16.95,6.09
	c-9.76,5.46-10.37,7.43-18.69,12.61c-13.86,8.62-17.25,6.33-29.56,15.21c-0.79,0.57,0.06-0.02-12.17,9.56
	c-7.9,6.19-9.83,7.67-13.04,10.43c-6.36,5.46-9.53,8.19-11.74,11.3c-4.03,5.69-5.38,11.08-6.96,17.39c-1.22,4.89-1.83,9.92-3.04,20
	c-0.39,3.25-0.68,5.95-0.87,7.82c-2.61,2.9-5.22,5.8-7.82,8.69c-0.74-2.21-1.78-5.67-2.61-10c-1.1-5.71-0.79-7.51-1.74-13.04
	c-1.22-7.08-2.08-6.15-3.48-13.48c-1.53-8-0.74-10.34-3.04-15.21c-1.45-3.08-3.19-5.18-4.78-6.96c-8.36-9.35-19.09-17.13-23.04-20
	c-24.69-17.92-24.75-18.18-28.25-20c-7.04-3.65-10.38-4.48-16.95-9.13c-7.94-5.62-8.12-8-14.34-11.3c-1.8-0.95-10.69-5.49-21.3-4.35
	c-9.23,0.99-15.45,5.83-20,9.13c-21.52,15.64-21.88,8.81-51.29,28.25c-18.97,12.54-19.1,15.57-35.21,24.34
	c-7.79,4.24-8.23,3.79-26.08,12.61c-18.95,9.36-28.55,14.14-34.78,19.56c-6.45,5.61-7.55,8.63-19.56,26.52
	c-3.1,4.62-16.57,24.58-30.43,42.6c-12.6,16.38-23.61,28.66-32.6,38.69C14.89,212.49,6.5,221.3,0,227.96c0,61.54,0,123.09,0,184.63
	c2.35-0.76,5.82-1.83,10.06-2.93c19.58-5.09,33.52-5.09,51.18-6.19c11.22-0.7,20.74-1.77,39.77-3.91
	c24.39-2.74,25.39-3.66,52.81-6.85c16.64-1.94,30.74-3.28,46.95-3.91c8.65-0.34,17.11-0.44,27.39,0.33
	c2.11,0.16,10.25,0.79,21.19,2.61c27.85,4.63,48.26,12.69,53.14,14.67c6.17,2.5,14.53,6.23,16.63,7.17
	c9.54,4.26,14.31,6.39,17.82,8.26c15.2,8.09,24.65,19.52,36.08,33.36c5.34,6.47,9.42,12.15,12.17,16.19
	c2.52-0.01,5.63-0.24,9.11-1.01c2.51-0.56,4.7-1.29,6.54-2.03c1.97,1.5,4.99,3.3,8.8,3.54c4.72,0.3,9.59-1.86,19.46-11.8
	c5.3-5.34,12.18-13.06,19.13-23.47c2.42-0.74,6.07-1.9,10.43-3.48c12.78-4.61,21.03-8.9,26.08-11.3
	c12.64-6.01,12.14-3.49,41.73-13.48c23.4-7.89,23.12-9.27,33.47-11.3c8.56-1.68,8.14-0.62,36.51-2.17
	c23.98-1.31,28.53-2.3,39.99-1.3c10.98,0.96,14.73,2.55,24.78,4.35c29.13,5.2,52.7,1.61,91.72,3.04c3.92,0.14,12.66,0.56,21.73,5.65
	c4.62,2.59,7.83,5.56,9.63,7.39c0-56.94,0-113.89,0-170.83C775.08,234.54,763.42,222.93,750.77,208.4z M586.46,272.73
	c-1.85,5.27-5.19,15.07-12.61,26.3c-2.22,3.37-6.16,9.25-12.17,15c-10.6,10.12-21.81,14.23-28.47,16.74c0,0-23.58,8.85-59.12,24.56
	c-23.19,10.25-35.03,15.6-46.73,26.73c-11.88,11.3-18.73,23.42-22.6,31.73c-3.57-9.46-10.35-24.02-23.26-38.04
	c-17.21-18.69-36.91-27.3-54.99-35.21c-13.62-5.95-35.53-13.98-51.95-19.56c-10.02-3.41-16.69-5.46-25.21-10.87
	c-3.03-1.93-15.42-10.07-26.3-26.08c-4.47-6.58-9.34-15.45-20.43-57.16c-3.7-13.92-6.47-25.41-8.26-33.04
	c1.16-3.8,2.32-7.61,3.48-11.41c19.68-17.86,33.25-31.66,34.99-34.61c1.86-3.15,1.95-6.2,1.95-6.2c0.02-0.8-0.04-1.46-0.1-1.9
	c1.69-2.41,4.22-5.49,7.82-8.48c3.99-3.3,7.88-5.31,10.76-6.52c7.44,0.23,17.5-0.39,28.69-3.91c4.68-1.47,8.82-3.22,12.39-5
	c5.67,1.97,11.76,3.89,18.26,5.65c7.75,2.11,15.12,3.74,22.01,5.01c6.04,13.76,21.12,43.59,43.24,44.85
	c0.85,0.05,1.7,0.05,2.57,0.02c0.85,0.01,10.83-0.07,15.32-7.5c1.34-2.21,1.81-4.46,1.96-6.19c1.24,0.96,3.17,2.24,5.76,3.15
	c5.13,1.81,9.57,1.05,11.74,0.65c3.27-0.6,7.32-1.99,12.61-5.87c10.96-8.04,17.85-19.88,20.87-25.65c3.14-0.01,6.82-0.28,10.87-1.09
	c8.01-1.59,14.26-4.63,18.47-7.17c4.2,1.84,9.61,3.75,16.08,5c8.4,1.62,15.7,1.56,21.08,1.09c0.95,1.19,2.23,2.57,3.91,3.91
	c2.57,2.05,5.1,3.23,6.95,3.91c5.42,5.67,12.64,12.12,21.95,18.04c4.55,2.9,8.95,5.25,13.04,7.17c1.96,2.46,3.91,4.93,5.87,7.39
	c-0.31,3.68-0.32,9.49,1.96,15.87c3.22,9.02,9.44,14.54,21.73,25.21c3.75,3.25,9.09,7.68,15.87,12.61
	C596.81,244.51,590.65,260.77,586.46,272.73z"/>
</svg>
