<svg version="1.1" id="Layer_1" xmlns="http://www.w3.org/2000/svg" xmlns:xlink="http://www.w3.org/1999/xlink" x="0px" y="0px"
	 viewBox="0 0 1131.49 783.82" style="enable-background:new 0 0 1131.49 783.82;" xml:space="preserve">
<path fill="currentColor" d="M907.96,68.85c-9.24,12.23-15.45,17.02-19.49,19.09c-0.92,0.47-3.62,1.78-6.46,4.45
	c-3.74,3.54-5.42,7.3-5.99,8.51c-4.42,9.41-12.51,14.92-18.79,24.05c-3.22,4.69-4.85,8.72-10.34,32.34
	c-6.42,27.65-6.71,33.03-9.8,45.34c-5.04,20.05-11.4,34.21-17.36,47.46c-1.18,2.63-13.53,29.73-34.38,58.57
	c-6.37,8.82-14.9,19.68-29.54,26.95c-3.99,1.99-4.41,1.7-9.33,3.8c-15.88,6.8-24.97,15.53-45.28,33.48
	c-5.91,5.22-15.35,13.51-27.44,23.83c-3-3.8-6.73-9.74-7.64-17.51c-0.4-3.41-0.09-5.82,0.22-8.65c1.76-16.13,2.8-25.59,1.13-33.16
	c-1.05-4.74-3.79-11.6-11.93-19.06c1.15-4.64,2.35-11.67,1.66-20.16c-0.37-4.6-1.3-14.76-7.45-25c-4.11-6.85-6.83-7.54-15.64-20.59
	c-2.1-3.11-4.73-7.2-4.59-12.52c0.11-4.2,1.9-7.11,2.82-8.87c4.5-8.61,1.78-15.44,0.71-39.51c-0.23-5.17-0.45-12.59-0.32-21.65
	c16.97-4.65,28.65-11.55,35.91-16.69c5.07-3.59,10.18-7.88,31.94-30.93c9.36-9.92,17-18.21,22.25-23.97
	c6.1-1.68,9.02-4.45,10.56-6.66c2.12-3.03,1.2-4.4,3.96-8.27c2.78-3.91,5.35-4.57,5.68-7.65c0.19-1.83-0.34-3.14-1.3-5.52
	c-0.71-1.74-2.88-6.56-8.09-10.88c-1.82-1.51-3.29-2.73-5.68-3.61c-3.12-1.14-5.89-0.99-9.21-0.81c-2.59,0.14-4.92,0.51-6.95,0.98
	c1.17-2.81,3.14-8.69,1.84-15.82c-0.14-0.78-0.88-4.66-3.24-8.74c-8.04-13.89-27.88-18.12-35-19.64c-9.38-2-11.78-0.83-18.94-3.94
	c-6.98-3.03-8.03-5.58-14.54-7c-2.87-0.63-10.21-2.23-16.77,1.31c-3.82,2.06-4.04,4.05-8.22,5.56c-4.51,1.63-5.74-0.16-10.41,0.89
	c-7.35,1.65-11.93,7.79-13.82,10.33c-2.72,3.65-4.12,7.21-4.86,9.69c-2.35,1.4-5.2,3.45-7.95,6.44c-5.97,6.48-8.03,13.63-8.81,17.38
	c-5.93,4.61-11.33,10.33-15.45,17.5c-6.14,10.68-4.53,16.07-11.28,35.5c-3.92,11.27-5.15,11.46-9.23,22.85
	c-4.85,13.53-7.3,24.97-8.61,32.39c-3.28,1.91-7.64,4.85-12.06,9.22c-2.43,2.41-8.76,8.77-12.58,18.15
	c-3.27,8.04-2.16,12.06-3.33,29.06c0,0-0.62,9.03-2.64,24.46c-3.5,26.78-7.87,29.2-9.55,46.79c-0.89,9.32,0.41,19.9,3,41.05
	c2.08,16.95,4.63,30.88,7.74,47.81c4.25,23.16,5.48,26.35,5.99,37.09c0.52,10.86-0.41,14.61-0.16,21.59
	c-2.67-6.19-4.57-11.02-6.34-17.49c-1.52-5.55-1.84-8.21-2.89-13.25c-2.39-11.5-4.16-14.1-10.61-34.24
	c-7.05-22.04-6.41-23.54-10.15-29.36c-5.65-8.79-12.85-14.29-18.05-17.56c-1.66-7.39-4.38-17.74-8.95-29.68
	c-2.15-5.61-5.63-14.02-26.15-49.16c-15.73-26.93-18.71-30.53-24.7-33.73c-10.64-5.68-22.37-5.99-29.88-6.19
	c-8.17-0.22-14.98,0.73-19.72,1.66c-4.85-11.84-13.39-29.48-26.17-42.81c-13.57-14.15-22.19-20.24-22.19-20.24
	c-2.06-1.45-5.15-3.51-8.87-7.15c-6.4-6.26-5.86-8.6-10.16-12.15c-6.52-5.4-14.63-5.71-19.82-5.92c-5.12-0.2-11.08-0.43-16.72,3.01
	c-3.3,2.01-3.57,3.51-7.68,5.44c-4.04,1.89-6.15,1.57-10.33,3.43c-3.41,1.52-5.85,3.45-7.33,4.79c-8.97-0.97-14.5,1.02-17.94,3.13
	c-2.26,1.38-2.98,2.42-6.54,4.51c-5.43,3.19-8.46,3.53-12,5.23c-3.39,1.63-7.78,4.75-11.84,11.36c-2.38-0.3-10.94-1.1-18.84,4.44
	c-4.17,2.92-6.54,6.48-7.78,8.72c-1.07-0.17-2.65-0.3-4.51,0.02c-0.72,0.12-4.73,0.81-6.47,3.07c-2.06,2.66,0.22,5.99,1.67,13.36
	c1.45,7.38,1.12,13.88,0.89,18.15c-0.26,4.91-0.86,7.9-0.18,13.33c0.36,2.84,0.62,4.98,1.71,7.21c2.49,5.14,7.53,7.09,11.72,9.14
	c10.38,5.06,25.37,15.45,31.09,23.29c0.81,1.11,3.32,4.75,7.74,6.03c1.96,0.57,3.58,0.46,4.14,0.43c9.35-0.51,33.89,3.43,47.24,5.58
	c4.98,0.8,12.41,2.1,21.49,4.12c-0.2,2.14-0.34,5.28,0.03,9.01c0.46,4.61,1.36,10.58,9.32,24.94c7.5,13.52,9.53,16.3,12.27,23.63
	c2.07,5.53,2.34,7.78,3.55,11.55c2.47,7.71,7.74,18.29,20.23,29.85c0.38,2.52,0.98,5.9,1.96,9.85c0.8,3.26,2.38,9.5,5.43,16.29
	c2.23,4.95,6.18,12.28,13.16,20.06c1.53,14.7,3.49,30.04,5.98,45.94c2.11,13.48,4.44,26.45,6.95,38.88
	c-2.19,0.61-5.53,1.55-9.58,2.75c-15.06,4.45-23.3,7.52-29.83,9.58c-8.86,2.79-17.16,4.15-33.77,6.88
	c-25.74,4.22-41.74,6.84-56.16,4.07c-1.83-0.35-5.43-1.14-10.59-1.46c-7.21-0.45-11.92,0.35-21.38,1.4
	c-3.35,0.37-11.37,1.27-17.06,1.61c-16.84,1.01-30.41-1.8-37.19-3.25c-11.16-2.39-9.23-3.3-24.62-6.9
	c-16.9-3.95-24.64-4.13-28.05-4.11c-10.66,0.04-9.55,1.98-18.28,1.73c-12.43-0.36-16.71-4.37-32.66-7.37
	c-7.43-1.4-13.61-1.86-17.55-2.03c8.64,91.48,17.27,182.96,25.91,274.45c58.47-5.52,116.93-11.04,175.39-16.56
	c31.1-6.4,67.32-15.18,107.22-27.43c17.42-5.35,42.68-14.56,93.18-32.97c35.27-11.16,73.19-27.47,111.1-51.46
	c5.38-3.41,10.6-6.86,15.67-10.36c1.28-4.82,2.44-9.79,3.44-14.93c8.44-43.41,2.8-82.97-6.13-114.14
	c7.01,22.89,21.71,58.75,53.69,91.08c11.01,11.13,22.14,19.89,32.37,26.78c9.84,2.29,24.63,4.69,42.3,3.35
	c23.59-1.78,35.66-7.85,90.72-38.97c65.32-36.91,97.98-55.37,117.18-69.75c19.38-14.51,19.9-16.72,72.76-59.05
	c22.52-18.03,41.18-32.65,53.66-42.36c0.91,0.37,1.98,0.91,3.1,1.7c2.05,1.46,3.35,3.14,4.11,4.32
	c45.27-43.04,90.54-86.08,135.81-129.12C1056.98,225.59,982.47,147.22,907.96,68.85z M166.81,211.3c-2.21-1-4.52-1.67-4.52-1.67
	c-1.41-0.41-2.72-0.68-3.86-0.87c0.04-0.59,0.07-1.32,0.03-2.16c-0.05-1.29-0.22-2.26-0.32-2.81c-0.48-2.7-1.51-5.35-1.89-6.3
	c2.45,1.76,5.01,3.79,7.61,6.13c5.78,5.2,10.17,10.52,13.47,15.2C176.6,218.11,171.91,213.61,166.81,211.3z"/>
</svg>
