<svg version="1.1" id="Layer_1" xmlns="http://www.w3.org/2000/svg" xmlns:xlink="http://www.w3.org/1999/xlink" x="0px" y="0px"
	 viewBox="0 0 861.01 925.85" style="enable-background:new 0 0 861.01 925.85;" xml:space="preserve">
	<path fill="currentColor" d="M12.81,141.06c8.15,7.41,19.8,17.88,34.08,30.2c14.79,12.77,13.19,10.95,35.14,29.62
		c28.95,24.62,29.81,26.14,38.77,32.09c7.96,5.28,13.47,8.19,22.51,15.68c9.47,7.84,15.42,12.88,20.04,21.78
		c4.68,9.01,6.03,18.2,6.97,24.54c0.9,6.08,0.31,5.92,1.16,14.09c1.34,12.88,3.8,22.8,5.66,30.2c2.84,11.31,3.52,10.89,6.68,23.38
		c0.86,3.38,1.26,5.18,4.79,21.93c2.46,11.63,5.51,23.14,7.55,34.85c1.82,10.43,1.92,13.6,4.79,18.59c1.38,2.39,6,9.71,15.1,13.65
		c3.4,1.47,8.78,3.8,14.96,1.89c3.89-1.21,6.48-3.59,7.84-5.08c-0.07,1.06-0.13,2.74,0,4.79c0.34,5.49,1.74,8.63,3.92,15.83
		c2.68,8.84,1.74,7.99,2.9,10.16c0.94,1.75,5.1,9.55,12.63,10.31c6.57,0.67,11.6-4.43,12.49-5.37c4.81-5.09,5.02-11.78,5.23-24.98
		c0.15-9.16-0.64-16.87-1.89-29.19c-0.45-4.41-0.87-8.04-1.16-10.45c0.41-0.07,1.02-0.13,1.71,0.04c5.14,1.26,6.18,13.32,7.3,29.79
		c1.74,25.73,2.61,38.6,2.32,45.1c-0.38,8.62-0.25,14.85,0,27.3c0.17,8.61,0.5,16.19,5.81,20.51c3.09,2.52,6.57,2.87,6.57,2.87
		s3.82,0.39,7.9-1.98c8.02-4.66,11.56-25.67,14.09-50.49c1.54-15.08,2.31-22.61,2.08-31.02c-0.33-12.34-2.03-23.63-3.92-36.19
		c-0.72-4.79-1.4-8.78-1.89-11.58c1.07,0.05,2.13,0.1,3.19,0.15c7.85,18.67,11.49,34.26,13.36,44.87
		c3.46,19.62,5.15,40.19,5.15,40.19c0.51,6.21,2.74,34.89,11.68,40.99c2.32,1.59,4.94,2.17,4.94,2.17c4.61,1.03,9.1-0.49,11.33-2.03
		c5.1-3.54,4.73-11.71,4.5-21.93c-0.61-27,1.05-11.27-0.15-42.26c-0.63-16.4-1.21-23.77-3.05-33.11c-1.07-5.45-2.24-9.92-3.12-13
		c15.37,11.36,30.3,16.61,38.77,13.4c2.25-0.85,6.52-2.48,8.49-6.75c0.02-0.03,0.03-0.07,0.05-0.1c1.63-3.63,0.67-7.91-2.13-10.73
		c-2.09-2.11-4.71-4.72-7.72-7.68c-10.36-10.17-11.71-10.93-15.03-14.92c-4.1-4.92-3.37-5.35-11.76-18.73
		c-7.4-11.79-8.15-11.76-12.2-18.73c-5.24-9.04-5.21-11.23-10.89-23.09c-5.4-11.28-9.64-20.12-16.99-30.06
		c-3.51-4.74-2.08-2.11-20.04-23.09c-5.17-6.04-7.49-8.84-11.76-13.5c-7.59-8.29-9.42-9.5-14.81-15.25
		c-13.5-14.4-21.52-27.68-24.39-32.67c-4.51-7.83-5.28-10.73-8.28-16.55c-10.64-20.66-26.06-32.75-34.85-40.08
		c-22.04-18.36-40.26-40.88-61.13-60.55C135.57,89.6,105.18,57.05,72.45,8.4c-16.58-8-39.16-13.99-59.64,0c0,0-0.48,0.33-0.9,0.64
		C2.8,15.74-10,39.15,12.81,141.06z M227.53,403.6c2.03,0.77,4.07,1.55,6.1,2.32c0.08,3.28,0.3,6.83,0.73,10.6
		c0.38,3.42,0.88,6.62,1.45,9.58c-1.34,0.58-3.64,1.32-5.54,0.29c0,0-0.36-0.2-0.69-0.47C227.21,423.92,227.48,406.43,227.53,403.6z
		"/>
	<path fill="currentColor" d="M407.73,467.76c-0.07-1.46-0.09-5.81,2.91-9.57c2.2-2.76,4.93-3.82,7.26-4.72c1.96-0.76,5.9-2.28,10.65-1.33
		c3.21,0.64,5.3,2.11,8.84,4.6c2.95,2.08,5.16,4.14,6.66,5.69c0.61-1.27,2.63-5.05,6.9-6.66c3.22-1.22,6.11-0.59,8.84,0
		c3.67,0.8,6.23,2.28,9.32,4.12c1.72,1.02,2.82,1.8,7.39,5.21c4.65,3.47,6.98,5.21,9.81,7.39c2.91,2.24,6.7,5.19,11.14,8.72
		c3.19,2.13,7.91,5.5,13.2,10.17c9.38,8.3,11.15,12.42,19.86,19.13c6.13,4.73,7.31,4.27,14.53,9.2c8.92,6.1,15.54,12.56,20.22,17.8
		c7.18,2.8,12.47,5.84,15.98,8.11c4.14,2.67,6.58,4.76,11.87,7.14c2.87,1.3,6.08,2.71,10.53,3.27c4.82,0.6,8.84-0.08,11.38-0.73
		c0.7-1.17,1.81-2.73,3.51-4.24c2.08-1.85,4.17-2.85,5.57-3.39c-1.73-2.02-4.6-5.32-8.23-9.32c-15.53-17.13-20.55-20.09-23.37-28.94
		c-0.91-2.87-2.96-9.6-0.36-17.07c0.62-1.78,2.64-7.36,8.35-11.14c1.51-1,5.86-3.88,11.38-3.27c3.06,0.34,5.52,1.64,10.17,5.33
		c8.23,6.53,13.52,12.77,14.29,13.68c7.67,9.14,7.7,11.18,13.92,18.65c4.86,5.83,8.89,9.46,14.53,14.53
		c17,15.28,20.16,13.26,26.15,21.79c2.78,3.96,5.08,11.04,9.69,25.18c2.8,8.61,4.94,15.19,6.78,24.22
		c3.43,16.82,0.98,18.46,3.87,26.64c2.81,7.93,7.56,13.31,23.25,26.64c15.83,13.45,28.33,22.71,32.93,26.15
		c29.66,22.19,30.81,26.92,59.57,48.43c13.07,9.77,24.7,17.69,33.99,23.73c0,57.65,0,115.31,0,172.96
		c-2.41-2.36-6.12-5.98-10.68-10.35c-12.65-12.11-20.84-19.41-33.42-30.87c-14.21-12.95-21.32-19.43-30.33-27.97
		c-16.86-15.98-16.57-16.54-31.6-30.69c-20.34-19.15-21-18.23-31.42-29.06c-1.73-1.8-10.56-12.18-28.15-32.87
		c0,0-16.05-18.88-32.33-33.24c-2.16-1.91-5.81-5.02-11.08-8.17c-5.19-3.11-6.77-3.16-12.53-5.99
		c-10.3-5.07-17.74-11.04-22.52-14.89c-5.99-4.82-5.36-5.09-9.81-8.35c-7.17-5.26-12.52-7.25-19.25-10.35
		c-1.82-0.84-18.65-8.67-34.14-19.98c-5.27-3.85-2.36-2.24-15.44-12.89c-18.8-15.32-25.12-18.9-37.59-30.69
		c-5.33-5.04-5.11-5.27-8.72-8.35c-10.88-9.3-15.83-9.74-24.88-16.89c-2.41-1.91-7.18-7.26-16.71-17.98
		c-8.92-10.03-13.47-15.17-17.8-20.89c-9.2-12.17-5.12-9.38-14.71-24.7c-0.92-1.46-3.04-4.81-2.91-9.26
		c0.08-2.56,0.87-4.59,1.45-5.81c-2.47-3.8-5.09-7.68-7.87-11.62c-2.64-3.74-5.26-7.34-7.87-10.78c-1.11-1.74-3.14-5.49-3.15-10.53
		c0-2.08-0.01-6.07,2.78-9.81C402.9,469.43,406.35,468.18,407.73,467.76z"/>
</svg>
