<svg version="1.1" id="Layer_1" xmlns="http://www.w3.org/2000/svg" xmlns:xlink="http://www.w3.org/1999/xlink" x="0px" y="0px"
	 viewBox="0 0 853.46 642.07" style="enable-background:new 0 0 853.46 642.07;" xml:space="preserve">
<path fill="currentColor" d="M787.24,468.14c-27.25-16.32-34.14-18.86-81.04-45.62c-16.24-9.26-38.19-21.81-65.89-38.61
	c-25.95-15.74-47.48-29.46-63.2-39.68c6.11-9.61,10.57-17.66,13.57-23.34c3.85-7.3,7.31-14.57,14.02-25.01
	c2.93-4.56,2.44-3.44,4.47-6.71c1.62-2.6,10.08-16.23,14.33-28.78c0.33-0.97,0.96-2.92,2.39-5.24c2.65-4.32,6.02-6.63,6.76-7.17
	c5.63-4.07,19.03-20.75,40.04-46.88c0,0,24.45-30.41,38.46-57.4c1.05-2.02,4.82-9.51,3.71-18.45c-0.32-2.55-0.92-6.86-4.43-10.22
	c-2.53-2.42-5.44-3.27-7.07-3.61c5.77-6.71,10.48-12.56,14.03-17.08c9.57-12.23,14.35-19.55,17.22-28.83
	c0.96-3.1,2.04-7.48,0.91-12.61c-0.49-2.21-1.73-7.87-6.56-10.32c-1.89-0.96-3.73-1.13-4.98-1.12c0.61-3.12,1.15-8.42-0.77-14.39
	c-0.96-3-2.46-7.66-6.97-11.03c-4.05-3.02-8.45-3.44-10.22-3.5c-8.05-0.28-13.21,5.13-23.48,13.43
	c-5.03,4.06-12.61,9.88-22.62,16.43c2.86-4.43,4.62-8.38,5.69-11.19c2.05-5.35,4.06-10.81,3.1-17.54c-0.32-2.24-0.83-5.48-3.31-8.59
	c-0.39-0.49-2.79-3.44-6.2-4.57c-6.17-2.06-12.91,2.71-15.97,4.85c-10.39,7.29-21.54,13.5-31.71,21.09
	c-10.18,7.6-19.24,14.37-32.12,21.77c-9.84,5.65-15.06,7.74-27.55,15.56c-1.51,0.95-6.5,4.09-15.86,10.58
	c-4.72,3.28-13.15,9.2-33.64,24.72c-27.66,20.94-20.59,16.41-35.68,27.77c-2.8,2.11-8.94,6.71-16.26,13.83
	c-3.34,3.25-5.96,6.08-7.72,8.07c-0.37-2.39-0.93-6.08-1.6-10.61c-1.84-12.62-2.22-16.52-3.46-23.45c-1.33-7.42-2-11.12-3.09-14.54
	c-5.96-18.63-20.23-29.45-24.07-32.19c-4.94-3.52-10.79-7.7-19.83-9.25c-10.03-1.71-18.25,0.8-22.26,2.35
	c-0.04-0.88-0.25-2.9-1.76-4.41c0,0-1.24-1.23-3.32-1.63c-3.21-0.61-14.98,2.92-23.07,14.14c-12.19,16.9-9.36,42.03-3.88,57.17
	c0.84,2.32,4.19,11.17,8.72,24.16c0,0,2.48,6.77,3.9,18.6c0.82,6.85,0.5,9.82-1.35,11.73c-2.29,2.35-6.07,2.2-8.23,2
	c-32.59-3.03-119.13-31.65-119.13-31.65c-13.12-4.34-29-9.15-47.65-13.54c-5.02-1.18-14.29-3.35-26.67-5.58
	c-15.23-2.75-22.05-3.23-41.21-6.02c-7.62-1.11-18.71-2.81-32.23-5.18c-4.69-0.66-12.52-1-20.81,2.58
	c-4.3,1.86-11.02,4.77-12.94,11.05c-0.99,3.26-0.41,6.48,0.14,9.49c0.79,4.35,2.36,7.71,3.56,9.86c-5.96-1.91-10.99-2.97-14.64-3.59
	c-4.9-0.83-6.76-0.79-8.07-0.68c-6.13,0.52-10.35,3.34-11.35,4.04c-2.48,1.72-6.49,4.52-7.89,9.86c-1.5,5.73,1.02,10.53,1.63,11.66
	c1.36,2.5,3.06,4.02,4.17,4.98c6.53,5.63,14.37,10.45,19.22,13.24c-0.96,0.14-4.67,0.8-7.45,4.14c-2.9,3.47-2.76,7.41-2.71,8.47
	c0.11,2.15,0.78,4.29,3.19,8c4.34,6.68,9.29,10.7,9.59,10.94c13.78,11.02,29.53,19.96,30.95,20.76c5.01,2.83,11.75,6.54,19.86,10.74
	c-0.9,3.35-1.74,8.28-0.74,13.89c1.84,10.36,8.97,17.76,36.37,35.98c16.57,11.01,29.88,19.79,51.66,30.89
	c11.76,5.99,21.85,10.55,29.18,13.72c14.53,9.71,27.1,15.96,35.69,19.81c13.33,5.98,14.3,4.93,53.99,18.79
	c17.17,6,21.43,7.74,30.5,9.75c14.74,3.27,27.26,3.93,35.69,3.96c-17.15,25.82-34.3,51.98-51.42,78.5
	c-34.86,53.98-68.37,107.46-100.58,160.36c79.47-15.92,156.71-24.15,236.17-40.07c7.6-23.07,18.25-54.55,27.6-78.96
	c6.13-16,12.38-31.52,18.69-46.57c23.24,22.22,47.43,44.54,72.61,66.88c8.57,7.6,17.12,15.08,25.65,22.45
	c91.16-18.26,182.31-36.52,273.47-54.78C826.75,492.38,803.87,478.09,787.24,468.14z M111.05,221.51c-3.91-1.32-7.68-2.69-11.3-4.08
	c0.85,0.07,2.06,0.18,3.51,0.35c3.07,0.36,8.43,0.99,13.08,2.4c3.14,0.95,7.89,2.84,13.19,6.88
	C123.62,225.51,117.45,223.67,111.05,221.51z M388.31,118.34c-1.61-2.7-3.3-5.45-5.09-8.23c-2.75-4.3-5.52-8.37-8.26-12.22
	c-1.45-9.23-2.9-18.45-4.35-27.68c2,4.02,4.14,8.13,6.43,12.33c3.13,5.72,6.3,11.13,9.46,16.21
	C387.11,105.28,387.71,111.81,388.31,118.34z"/>
</svg>
