<svg width="86" height="47" viewBox="0 0 86 47" fill="none" xmlns="http://www.w3.org/2000/svg">
<path d="M85.0013 20.0144H45.3757V47.0007H85.0013V20.0144Z" fill="white"/>
<path d="M84.5172 20.5015H45.8585V46.5138H84.5172V20.5015Z" fill="#0A0203"/>
<path d="M65.1683 23.3286L65.5366 24.4833L66.7363 24.4772L65.7609 25.1855L66.1389 26.3377L65.1683 25.6196L64.2014 26.3377L64.577 25.1855L63.6016 24.4772L64.8013 24.4833L65.1683 23.3286Z" fill="white"/>
<path d="M65.1683 40.6812L65.5366 41.8322L66.7363 41.826L65.7609 42.5368L66.1389 43.6891L65.1683 42.9721L64.2014 43.6891L64.577 42.5368L63.6016 41.826L64.8013 41.8322L65.1683 40.6812Z" fill="white"/>
<path d="M60.8899 24.4834L61.2557 25.6356L62.4567 25.6332L61.4849 26.339L61.8605 27.4888L60.8899 26.7731L59.923 27.4888L60.2973 26.339L59.3256 25.6332L60.5253 25.6356L60.8899 24.4834Z" fill="white"/>
<path d="M57.7405 27.6682L58.1063 28.8217L59.3073 28.8131L58.3318 29.5226L58.7062 30.6724L57.7405 29.9567L56.7724 30.6724L57.1491 29.5226L56.17 28.8131L57.3747 28.8217L57.7405 27.6682Z" fill="white"/>
<path d="M56.5797 31.9968L56.9431 33.1466L58.1453 33.1405L57.1711 33.8512L57.543 34.9998L56.5797 34.2829L55.6104 34.9998L55.9884 33.8512L55.0105 33.1405L56.2115 33.1466L56.5797 31.9968Z" fill="white"/>
<path d="M57.7271 36.3218L58.0953 37.4802L59.2926 37.4703L58.3184 38.1799L58.6976 39.3297L57.7271 38.6103L56.7589 39.3297L57.1369 38.1799L56.1591 37.4728L57.3601 37.4802L57.7271 36.3218Z" fill="white"/>
<path d="M60.8899 39.5056L61.2557 40.6591L62.4567 40.6542L61.4849 41.3613L61.8605 42.5123L60.8899 41.7966L59.923 42.5123L60.2973 41.3613L59.3256 40.6542L60.5253 40.6591L60.8899 39.5056Z" fill="white"/>
<path d="M69.4529 24.4834L69.0871 25.6356L67.8837 25.6332L68.8591 26.339L68.4836 27.4888L69.4529 26.7731L70.4198 27.4888L70.0455 26.339L71.0185 25.6332L69.8223 25.6356L69.4529 24.4834Z" fill="white"/>
<path d="M72.6035 27.6682L72.2365 28.8217L71.0343 28.8131L72.0097 29.5226L71.633 30.6724L72.6035 29.9567L73.5728 30.6724L73.1961 29.5226L74.1691 28.8131L72.9693 28.8217L72.6035 27.6682Z" fill="white"/>
<path d="M73.7655 31.9968L73.3985 33.1466L72.1963 33.1405L73.1717 33.8512L72.7962 34.9998L73.7655 34.2829L74.7336 34.9998L74.3593 33.8512L75.3311 33.1405L74.1313 33.1466L73.7655 31.9968Z" fill="white"/>
<path d="M72.6109 36.3218L72.2499 37.4802L71.0465 37.4703L72.0244 38.1799L71.6452 39.3297L72.6109 38.6103L73.5851 39.3297L73.2083 38.1799L74.1837 37.4728L72.9815 37.4802L72.6109 36.3218Z" fill="white"/>
<path d="M69.4529 39.5056L69.0871 40.6591L67.8837 40.6542L68.8591 41.3613L68.4836 42.5123L69.4529 41.7966L70.4198 42.5123L70.0455 41.3613L71.0185 40.6542L69.8223 40.6591L69.4529 39.5056Z" fill="white"/>
<path d="M52.0134 15.318V13.1673C51.2368 12.4971 48.1361 11.1554 46.2474 10.7336V12.2474C48.4092 12.7836 51.1014 14.3589 52.0134 15.318Z" fill="#0A0203"/>
<path d="M53.5851 18.5277H55.4214C55.4774 15.8137 53.2937 14.1339 52.9803 13.8904V16.4765C53.6827 17.6226 53.5851 18.5277 53.5851 18.5277Z" fill="#0A0203"/>
<path d="M58.1562 13.0652V15.3992C59.0792 16.3731 59.6328 17.1368 60.073 18.5387H62.0177C61.4983 16.3953 60.262 14.6441 58.1575 13.0652H58.1562Z" fill="#0A0203"/>
<path d="M56.9723 14.3453V12.2425C55.1872 11.0791 51.6611 9.4842 48.1373 8.74268V10.2515C51.5221 11.0791 55.1214 12.8487 56.9723 14.3465V14.3453Z" fill="#0A0203"/>
<path d="M61.9702 13.0688V10.9881C59.8304 9.62682 55.4239 7.72444 50.2212 6.61646V8.12164C55.2154 9.33906 59.0049 11.0742 61.9702 13.0688Z" fill="#0A0203"/>
<path d="M63.354 11.8735L63.3491 14.1116C64.7159 15.2049 66.0352 16.6449 66.9155 18.5386H68.9798C68.2738 16.1813 65.6316 13.3221 63.354 11.8735Z" fill="#0A0203"/>
<path d="M67.5459 11.7728V9.69089C63.4515 7.24866 57.3161 5.10156 52.4426 4.23584V5.73733C57.9465 6.85146 64.5026 9.59497 67.5459 11.774V11.7728Z" fill="#0A0203"/>
<path d="M74.1654 18.5387H76.3285C74.7727 14.7832 70.8795 11.774 69.0603 10.6279V12.8365C71.8147 14.8951 72.8328 16.3658 74.1667 18.5387H74.1654Z" fill="#0A0203"/>
<path d="M73.0328 10.4583V8.30132C69.7163 6.25506 63.0078 3.19182 54.8386 1.60425V3.17091C61.0533 4.47319 68.9787 7.58439 73.0328 10.457V10.4583Z" fill="#0A0203"/>
<path d="M81.1824 18.5387H83.5478C80.9251 14.0391 77.9257 11.4653 74.6836 9.33911V11.5993C77.0856 13.3013 79.6619 15.8382 81.1824 18.5399V18.5387Z" fill="#0A0203"/>
<path d="M44.699 11.8255V10.404C42.5714 10.0006 38.8318 9.74361 37.1882 9.95881V11.0729C39.6561 10.9438 43.2908 11.4062 44.699 11.8255Z" fill="#0A0203"/>
<path d="M35.5324 11.1738V10.1101C31.5844 10.527 28.8751 11.8944 27.3083 13.0614V13.9764C29.5457 12.1551 32.6452 11.4013 35.5324 11.1738Z" fill="#0A0203"/>
<path d="M26.3963 14.9319V13.8965C22.764 18.0124 27.3083 21.4396 27.7923 21.7815V20.3747C25.2526 18.4378 25.5501 16.078 26.3963 14.9331V14.9319Z" fill="#0A0203"/>
<path d="M29.1677 21.2466V22.7555C31.6343 24.1327 34.1168 25.0034 37.6466 25.6404L37.621 23.5954C35.2215 23.449 31.9233 22.7591 29.1665 21.2466H29.1677Z" fill="#0A0203"/>
<path d="M38.8257 23.6592L38.8147 25.7867C40.8802 25.9601 42.8286 26.0117 43.893 26.0105V23.6174C42.325 23.7232 39.4195 23.7441 38.8257 23.6592Z" fill="#0A0203"/>
<path d="M46.5889 9.88396V8.43288C44.0479 7.91394 39.1195 7.52658 36.2006 7.80204V8.93092C40.0535 8.78704 43.865 9.28385 46.5889 9.88396Z" fill="#0A0203"/>
<path d="M36.3152 29.7426V27.4652C32.5342 27.1282 26.7219 25.7965 23.1116 23.1243V24.643C27.0694 27.6546 33.3304 29.3233 36.3152 29.7426Z" fill="#0A0203"/>
<path d="M21.7423 23.502V21.998C18.5392 18.9262 19.1647 15.8015 21.2326 13.7884V12.8477C17.2578 16.4889 18.7136 20.895 21.7423 23.502Z" fill="#0A0203"/>
<path d="M37.6429 27.5869V29.9455C39.9437 30.2714 41.9397 30.3772 43.893 30.3772V27.7738C41.7873 27.7861 38.5781 27.6755 37.6429 27.5869Z" fill="#0A0203"/>
<path d="M22.3044 11.9609V12.8475C25.7489 10.2627 30.915 9.22108 34.5461 9.02186V7.93848C30.0493 8.23484 24.8844 9.97244 22.3044 11.9609Z" fill="#0A0203"/>
<path d="M16.6993 24.8816V26.5122C21.6411 31.0068 29.7701 33.454 34.6814 34.3074V31.768C30.1566 31.2565 21.9788 29.4869 16.6993 24.8816Z" fill="#0A0203"/>
<path d="M48.6727 7.748V6.3166C45.4806 5.73002 39.9621 5.09057 34.7948 5.5677V6.7015C39.1379 6.39653 45.2685 6.96589 48.6727 7.748Z" fill="#0A0203"/>
<path d="M36.136 31.9329V34.5608C38.327 35.0023 41.93 35.2076 43.8931 35.2802V32.351C42.7226 32.3928 37.5967 32.0964 36.136 31.9316V31.9329Z" fill="#0A0203"/>
<path d="M33.1365 6.80715V5.70532C29.2946 6.03858 22.4263 7.41833 17.8699 10.5295V11.4223C22.3044 8.37628 29.1678 7.02481 33.1365 6.80838V6.80715Z" fill="#0A0203"/>
<path d="M16.6188 12.3299V11.4224C14.5338 13.0075 9.4226 18.3543 15.3398 25.1215V23.4798C14.0242 21.9967 10.8504 17.1935 16.6188 12.3299Z" fill="#0A0203"/>
<path d="M50.8941 5.40154V3.93202C47.0254 3.1659 39.4902 2.50431 33.5657 3.09089V4.22592C38.8025 3.81765 46.2536 4.41284 50.8941 5.40154Z" fill="#0A0203"/>
<path d="M34.524 36.436V39.2164C37.4406 39.7883 41.074 40.1437 43.893 40.2396V37.0841C40.5193 37.0263 37.6113 36.8652 34.524 36.4348V36.436Z" fill="#0A0203"/>
<path d="M32.9316 38.952V36.2614C24.8222 35.1055 15.8872 32.1258 10.3505 26.6511V28.3863C16.9102 34.9763 27.7911 38.0138 32.9316 38.9508V38.952Z" fill="#0A0203"/>
<path d="M13.389 8.95427V9.82983C18.81 6.34971 26.2366 4.85437 31.91 4.3465V3.23975C26.4561 3.71688 18.4686 5.58975 13.389 8.95427Z" fill="#0A0203"/>
<path d="M8.98123 26.7053V24.9173C6.85845 21.9979 4.77591 16.2416 12.1111 10.7288V9.82861C3.87364 15.7682 5.92692 23.0395 8.98123 26.7053Z" fill="#0A0203"/>
<path d="M3.29456 27.8293V29.7674C9.51657 37.9082 22.3654 42.7004 30.3541 44.3986V41.4264C21.9606 39.9938 9.20687 35.8459 3.29456 27.8293Z" fill="#0A0203"/>
<path d="M53.2731 2.83515V1.30907C49.4482 0.503598 40.1499 -0.536748 31.9624 0.322828V1.49598C38.8087 0.888501 47.4485 1.63002 53.2731 2.83515Z" fill="#0A0203"/>
<path d="M30.3078 1.63853V0.492432C23.203 1.22412 14.3815 3.70201 9.22632 7.09973V8.0085C15.7019 4.00329 24.2967 2.21281 30.3078 1.63976V1.63853Z" fill="#0A0203"/>
<path d="M32.0891 41.7092V44.7565C33.9132 45.225 40.8387 46.2248 43.893 46.2481V42.7545C39.2317 42.6057 34.4716 42.0954 32.0891 41.708V41.7092Z" fill="#0A0203"/>
<path d="M7.83758 8.93084V8.00854C5.7526 9.36493 -4.12117 16.8416 1.94355 27.6312V25.4558C-1.84964 17.502 3.93221 11.7309 7.83758 8.93207V8.93084Z" fill="#0A0203"/>
</svg>
